<svg xmlns="http://www.w3.org/2000/svg" xmlns:xlink="http://www.w3.org/1999/xlink" version="1.1" width="635.2843627929688" height="388.1000061035156" viewBox="60 6.3125 635.2843627929688 388.1000061035156"><g><g transform="translate(574,17)"><polygon fill="#000000" points="0,0 4.2,11.2 11.8,2" transform="translate(-5.9,27.3)"/>
<rect fill="none" width="1" height="1" transform="translate(33.3,-0.5)"/>
<g><g>
<rect x="0" y="0" width="28.3" height="28.3" opacity="0"/>
<path fill="none" stroke="#000000" stroke-width="1" d="M28.3,0C16.7,2.2,7,13.4,0,28.3"/>
</g></g><rect stroke="none" stroke-width="0" fill="#FFFFFF" x="0" y="0" width="0" height="0"/><path stroke="#000000" fill="none"/><text font-family="OpenSansCondensedLight" font-size="14pt" fill="black" transform="translate(0,0)"/><rect stroke-width="0" fill="none" width="1" height="1" transform="translate(33.3,-0.5)"/><text font-family="OpenSansCondensedLight" font-size="14pt" fill="black" text-decoration="none" transform="translate(33.3,-0.5)"><tspan x="0" y="6.8">100</tspan></text><path stroke="#000000" fill="none" transform="translate(33.3,-0.5)"/></g><g transform="translate(163,234)"><g><g>
<path d="M19,0C8.5,0,0,9,0,20s8.5,20,19,20s19,-9,19,-20S29.5,0,19,0L19,0z" stroke="#000000" stroke-dasharray="none" fill="#FFFFFF"/>
<rect x="3.7" y="10.2" width="30.6" height="19.6" fill="none"/>
<circle fill="none" cx="19.1" cy="0" r="0.1"/>
<circle fill="none" cx="28.1" cy="2.4" r="0.1"/>
<circle fill="none" cx="35.6" cy="10.2" r="0.1"/>
<circle fill="none" cx="38" cy="20" r="0.1"/>
<circle fill="none" cx="35.6" cy="29.8" r="0.1"/>
<circle fill="none" cx="28.3" cy="37.4" r="0.1"/>
<circle fill="none" cx="19" cy="40" r="0.1"/>
<circle fill="none" cx="9.6" cy="37.4" r="0.1"/>
<circle fill="none" cx="2.4" cy="29.8" r="0.1"/>
<circle fill="none" cx="0" cy="19.8" r="0.1"/>
<circle fill="none" cx="2.4" cy="10.2" r="0.1"/>
<circle fill="none" cx="9.9" cy="2.4" r="0.1"/>
</g></g><rect stroke="none" stroke-width="0" fill="#FFFFFF" x="0" y="0" width="0" height="0" transform="translate(37.9,19.9)"/><path stroke="#000000" fill="none" d=""/><text font-family="OpenSansCondensedLight" font-size="14pt" fill="black" transform="translate(37.9,19.9)"/><rect stroke-width="0" fill="none" width="30.6" height="19.6" transform="translate(3.7,10.2)"/><text font-family="OpenSansCondensedLight" font-size="14pt" fill="black" transform="translate(3.7,10.2)" text-anchor="middle"><tspan x="15.3" y="16.1"> </tspan></text><path stroke="#000000" fill="none" transform="translate(3.7,10.2)" d="M 0 0"/></g><g transform="translate(311,234)"><g><g>
<path d="M19,0C8.5,0,0,9,0,20s8.5,20,19,20s19,-9,19,-20S29.5,0,19,0L19,0z" stroke="#000000" stroke-dasharray="none" fill="#FFFFFF"/>
<rect x="3.7" y="10.2" width="30.6" height="19.6" fill="none"/>
<circle fill="none" cx="19.1" cy="0" r="0.1"/>
<circle fill="none" cx="28.1" cy="2.4" r="0.1"/>
<circle fill="none" cx="35.6" cy="10.2" r="0.1"/>
<circle fill="none" cx="38" cy="20" r="0.1"/>
<circle fill="none" cx="35.6" cy="29.8" r="0.1"/>
<circle fill="none" cx="28.3" cy="37.4" r="0.1"/>
<circle fill="none" cx="19" cy="40" r="0.1"/>
<circle fill="none" cx="9.6" cy="37.4" r="0.1"/>
<circle fill="none" cx="2.4" cy="29.8" r="0.1"/>
<circle fill="none" cx="0" cy="19.8" r="0.1"/>
<circle fill="none" cx="2.4" cy="10.2" r="0.1"/>
<circle fill="none" cx="9.9" cy="2.4" r="0.1"/>
</g></g><rect stroke="none" stroke-width="0" fill="#FFFFFF" x="0" y="0" width="0" height="0" transform="translate(37.9,19.9)"/><path stroke="#000000" fill="none" d=""/><text font-family="OpenSansCondensedLight" font-size="14pt" fill="black" transform="translate(37.9,19.9)"/><rect stroke-width="0" fill="none" width="30.6" height="19.6" transform="translate(3.7,10.2)"/><text font-family="OpenSansCondensedLight" font-size="14pt" fill="black" transform="translate(3.7,10.2)" text-anchor="middle"><tspan x="15.3" y="16.1"> </tspan></text><path stroke="#000000" fill="none" transform="translate(3.7,10.2)" d="M 0 0"/></g><g transform="translate(460,234)"><g><g>
<path d="M19,0C8.5,0,0,9,0,20s8.5,20,19,20s19,-9,19,-20S29.5,0,19,0L19,0z" stroke="#000000" stroke-dasharray="none" fill="#FFFFFF"/>
<rect x="3.7" y="10.2" width="30.6" height="19.6" fill="none"/>
<circle fill="none" cx="19.1" cy="0" r="0.1"/>
<circle fill="none" cx="28.1" cy="2.4" r="0.1"/>
<circle fill="none" cx="35.6" cy="10.2" r="0.1"/>
<circle fill="none" cx="38" cy="20" r="0.1"/>
<circle fill="none" cx="35.6" cy="29.8" r="0.1"/>
<circle fill="none" cx="28.3" cy="37.4" r="0.1"/>
<circle fill="none" cx="19" cy="40" r="0.1"/>
<circle fill="none" cx="9.6" cy="37.4" r="0.1"/>
<circle fill="none" cx="2.4" cy="29.8" r="0.1"/>
<circle fill="none" cx="0" cy="19.8" r="0.1"/>
<circle fill="none" cx="2.4" cy="10.2" r="0.1"/>
<circle fill="none" cx="9.9" cy="2.4" r="0.1"/>
</g></g><rect stroke="none" stroke-width="0" fill="#FFFFFF" x="0" y="0" width="0" height="0" transform="translate(37.9,19.9)"/><path stroke="#000000" fill="none" d=""/><text font-family="OpenSansCondensedLight" font-size="14pt" fill="black" transform="translate(37.9,19.9)"/><rect stroke-width="0" fill="none" width="30.6" height="19.6" transform="translate(3.7,10.2)"/><text font-family="OpenSansCondensedLight" font-size="14pt" fill="black" transform="translate(3.7,10.2)" text-anchor="middle"><tspan x="15.3" y="16.1"> </tspan></text><path stroke="#000000" fill="none" transform="translate(3.7,10.2)" d="M 0 0"/></g><g transform="translate(130,265)"><g><g>
<path d="M25,0H0v24h25V0L25,0z" fill="none" stroke="none" stroke-dasharray="none"/>
<rect x="1.1" y="1.1" width="22.8" height="21.8" fill="none"/>
<circle fill="none" cx="12.5" cy="0" r="0.1"/>
<circle fill="none" cx="18.7" cy="0" r="0.1"/>
<circle fill="none" cx="25" cy="6.1" r="0.1"/>
<circle fill="none" cx="25" cy="12" r="0.1"/>
<circle fill="none" cx="25" cy="17.9" r="0.1"/>
<circle fill="none" cx="18.7" cy="24" r="0.1"/>
<circle fill="none" cx="12.5" cy="24" r="0.1"/>
<circle fill="none" cx="6.3" cy="24" r="0.1"/>
<circle fill="none" cx="0" cy="17.9" r="0.1"/>
<circle fill="none" cx="0" cy="12" r="0.1"/>
<circle fill="none" cx="0" cy="6.1" r="0.1"/>
<circle fill="none" cx="6.3" cy="0" r="0.1"/>
</g></g><rect stroke="none" stroke-width="0" fill="#FFFFFF" x="0" y="0" width="0" height="0" transform="translate(24.9,11.9)"/><path stroke="#000000" fill="none" d=""/><text font-family="OpenSansCondensedLight" font-size="14pt" fill="black" transform="translate(24.9,11.9)"/><rect stroke-width="0" fill="none" width="22.8" height="21.8" transform="translate(1.1,1.1)"/><text font-family="OpenSansCondensedLight" font-size="14pt" fill="black" transform="translate(1.1,1.1)" text-anchor="middle"><tspan x="11.4" y="17.2">W</tspan></text><path stroke="#000000" fill="none" transform="translate(1.1,1.1)" d="M 0 0"/></g><g transform="translate(154,198)"><g><g>
<path d="M25,0H0v24h25V0L25,0z" fill="none" stroke="none" stroke-dasharray="none"/>
<rect x="1.1" y="1.1" width="22.8" height="21.8" fill="none"/>
<circle fill="none" cx="12.5" cy="0" r="0.1"/>
<circle fill="none" cx="18.7" cy="0" r="0.1"/>
<circle fill="none" cx="25" cy="6.1" r="0.1"/>
<circle fill="none" cx="25" cy="12" r="0.1"/>
<circle fill="none" cx="25" cy="17.9" r="0.1"/>
<circle fill="none" cx="18.7" cy="24" r="0.1"/>
<circle fill="none" cx="12.5" cy="24" r="0.1"/>
<circle fill="none" cx="6.3" cy="24" r="0.1"/>
<circle fill="none" cx="0" cy="17.9" r="0.1"/>
<circle fill="none" cx="0" cy="12" r="0.1"/>
<circle fill="none" cx="0" cy="6.1" r="0.1"/>
<circle fill="none" cx="6.3" cy="0" r="0.1"/>
</g></g><rect stroke="none" stroke-width="0" fill="#FFFFFF" x="0" y="0" width="0" height="0" transform="translate(24.9,11.9)"/><path stroke="#000000" fill="none" d=""/><text font-family="OpenSansCondensedLight" font-size="14pt" fill="black" transform="translate(24.9,11.9)"/><rect stroke-width="0" fill="none" width="22.8" height="21.8" transform="translate(1.1,1.1)"/><text font-family="OpenSansCondensedLight" font-size="14pt" fill="black" transform="translate(1.1,1.1)" text-anchor="middle"><tspan x="11.4" y="17.2">V</tspan></text><path stroke="#000000" fill="none" transform="translate(1.1,1.1)" d="M 0 0"/></g><g transform="translate(270,261)"><g><g>
<path d="M25,0H0v24h25V0L25,0z" fill="none" stroke="none" stroke-dasharray="none"/>
<rect x="1.1" y="1.1" width="22.8" height="21.8" fill="none"/>
<circle fill="none" cx="12.5" cy="0" r="0.1"/>
<circle fill="none" cx="18.7" cy="0" r="0.1"/>
<circle fill="none" cx="25" cy="6.1" r="0.1"/>
<circle fill="none" cx="25" cy="12" r="0.1"/>
<circle fill="none" cx="25" cy="17.9" r="0.1"/>
<circle fill="none" cx="18.7" cy="24" r="0.1"/>
<circle fill="none" cx="12.5" cy="24" r="0.1"/>
<circle fill="none" cx="6.3" cy="24" r="0.1"/>
<circle fill="none" cx="0" cy="17.9" r="0.1"/>
<circle fill="none" cx="0" cy="12" r="0.1"/>
<circle fill="none" cx="0" cy="6.1" r="0.1"/>
<circle fill="none" cx="6.3" cy="0" r="0.1"/>
</g></g><rect stroke="none" stroke-width="0" fill="#FFFFFF" x="0" y="0" width="0" height="0" transform="translate(24.9,11.9)"/><path stroke="#000000" fill="none" d=""/><text font-family="OpenSansCondensedLight" font-size="14pt" fill="black" transform="translate(24.9,11.9)"/><rect stroke-width="0" fill="none" width="22.8" height="21.8" transform="translate(1.1,1.1)"/><text font-family="OpenSansCondensedLight" font-size="14pt" fill="black" transform="translate(1.1,1.1)" text-anchor="middle"><tspan x="11.4" y="17.2">W</tspan></text><path stroke="#000000" fill="none" transform="translate(1.1,1.1)" d="M 0 0"/></g><g transform="translate(299,208)"><g><g>
<path d="M25,0H0v24h25V0L25,0z" fill="none" stroke="none" stroke-dasharray="none"/>
<rect x="1.1" y="1.1" width="22.8" height="21.8" fill="none"/>
<circle fill="none" cx="12.5" cy="0" r="0.1"/>
<circle fill="none" cx="18.7" cy="0" r="0.1"/>
<circle fill="none" cx="25" cy="6.1" r="0.1"/>
<circle fill="none" cx="25" cy="12" r="0.1"/>
<circle fill="none" cx="25" cy="17.9" r="0.1"/>
<circle fill="none" cx="18.7" cy="24" r="0.1"/>
<circle fill="none" cx="12.5" cy="24" r="0.1"/>
<circle fill="none" cx="6.3" cy="24" r="0.1"/>
<circle fill="none" cx="0" cy="17.9" r="0.1"/>
<circle fill="none" cx="0" cy="12" r="0.1"/>
<circle fill="none" cx="0" cy="6.1" r="0.1"/>
<circle fill="none" cx="6.3" cy="0" r="0.1"/>
</g></g><rect stroke="none" stroke-width="0" fill="#FFFFFF" x="0" y="0" width="0" height="0" transform="translate(24.9,11.9)"/><path stroke="#000000" fill="none" d=""/><text font-family="OpenSansCondensedLight" font-size="14pt" fill="black" transform="translate(24.9,11.9)"/><rect stroke-width="0" fill="none" width="22.8" height="21.8" transform="translate(1.1,1.1)"/><text font-family="OpenSansCondensedLight" font-size="14pt" fill="black" transform="translate(1.1,1.1)" text-anchor="middle"><tspan x="11.4" y="17.2">V</tspan></text><path stroke="#000000" fill="none" transform="translate(1.1,1.1)" d="M 0 0"/></g><g transform="translate(189,302)"><g><g>
<path d="M25,0H0v24h25V0L25,0z" fill="none" stroke="none" stroke-dasharray="none"/>
<rect x="1.1" y="1.1" width="22.8" height="21.8" fill="none"/>
<circle fill="none" cx="12.5" cy="0" r="0.1"/>
<circle fill="none" cx="18.7" cy="0" r="0.1"/>
<circle fill="none" cx="25" cy="6.1" r="0.1"/>
<circle fill="none" cx="25" cy="12" r="0.1"/>
<circle fill="none" cx="25" cy="17.9" r="0.1"/>
<circle fill="none" cx="18.7" cy="24" r="0.1"/>
<circle fill="none" cx="12.5" cy="24" r="0.1"/>
<circle fill="none" cx="6.3" cy="24" r="0.1"/>
<circle fill="none" cx="0" cy="17.9" r="0.1"/>
<circle fill="none" cx="0" cy="12" r="0.1"/>
<circle fill="none" cx="0" cy="6.1" r="0.1"/>
<circle fill="none" cx="6.3" cy="0" r="0.1"/>
</g></g><rect stroke="none" stroke-width="0" fill="#FFFFFF" x="0" y="0" width="0" height="0" transform="translate(24.9,11.9)"/><path stroke="#000000" fill="none" d=""/><text font-family="OpenSansCondensedLight" font-size="14pt" fill="black" transform="translate(24.9,11.9)"/><rect stroke-width="0" fill="none" width="22.8" height="21.8" transform="translate(1.1,1.1)"/><text font-family="OpenSansCondensedLight" font-size="14pt" fill="black" transform="translate(1.1,1.1)" text-anchor="middle"><tspan x="11.4" y="17.2">U</tspan></text><path stroke="#000000" fill="none" transform="translate(1.1,1.1)" d="M 0 0"/></g><g transform="translate(421,261)"><g><g>
<path d="M25,0H0v24h25V0L25,0z" fill="none" stroke="none" stroke-dasharray="none"/>
<rect x="1.1" y="1.1" width="22.8" height="21.8" fill="none"/>
<circle fill="none" cx="12.5" cy="0" r="0.1"/>
<circle fill="none" cx="18.7" cy="0" r="0.1"/>
<circle fill="none" cx="25" cy="6.1" r="0.1"/>
<circle fill="none" cx="25" cy="12" r="0.1"/>
<circle fill="none" cx="25" cy="17.9" r="0.1"/>
<circle fill="none" cx="18.7" cy="24" r="0.1"/>
<circle fill="none" cx="12.5" cy="24" r="0.1"/>
<circle fill="none" cx="6.3" cy="24" r="0.1"/>
<circle fill="none" cx="0" cy="17.9" r="0.1"/>
<circle fill="none" cx="0" cy="12" r="0.1"/>
<circle fill="none" cx="0" cy="6.1" r="0.1"/>
<circle fill="none" cx="6.3" cy="0" r="0.1"/>
</g></g><rect stroke="none" stroke-width="0" fill="#FFFFFF" x="0" y="0" width="0" height="0" transform="translate(24.9,11.9)"/><path stroke="#000000" fill="none" d=""/><text font-family="OpenSansCondensedLight" font-size="14pt" fill="black" transform="translate(24.9,11.9)"/><rect stroke-width="0" fill="none" width="22.8" height="21.8" transform="translate(1.1,1.1)"/><text font-family="OpenSansCondensedLight" font-size="14pt" fill="black" transform="translate(1.1,1.1)" text-anchor="middle"><tspan x="11.4" y="17.2">W</tspan></text><path stroke="#000000" fill="none" transform="translate(1.1,1.1)" d="M 0 0"/></g><g transform="translate(449,205)"><g><g>
<path d="M25,0H0v24h25V0L25,0z" fill="none" stroke="none" stroke-dasharray="none"/>
<rect x="1.1" y="1.1" width="22.8" height="21.8" fill="none"/>
<circle fill="none" cx="12.5" cy="0" r="0.1"/>
<circle fill="none" cx="18.7" cy="0" r="0.1"/>
<circle fill="none" cx="25" cy="6.1" r="0.1"/>
<circle fill="none" cx="25" cy="12" r="0.1"/>
<circle fill="none" cx="25" cy="17.9" r="0.1"/>
<circle fill="none" cx="18.7" cy="24" r="0.1"/>
<circle fill="none" cx="12.5" cy="24" r="0.1"/>
<circle fill="none" cx="6.3" cy="24" r="0.1"/>
<circle fill="none" cx="0" cy="17.9" r="0.1"/>
<circle fill="none" cx="0" cy="12" r="0.1"/>
<circle fill="none" cx="0" cy="6.1" r="0.1"/>
<circle fill="none" cx="6.3" cy="0" r="0.1"/>
</g></g><rect stroke="none" stroke-width="0" fill="#FFFFFF" x="0" y="0" width="0" height="0" transform="translate(24.9,11.9)"/><path stroke="#000000" fill="none" d=""/><text font-family="OpenSansCondensedLight" font-size="14pt" fill="black" transform="translate(24.9,11.9)"/><rect stroke-width="0" fill="none" width="22.8" height="21.8" transform="translate(1.1,1.1)"/><text font-family="OpenSansCondensedLight" font-size="14pt" fill="black" transform="translate(1.1,1.1)" text-anchor="middle"><tspan x="11.4" y="17.2">V</tspan></text><path stroke="#000000" fill="none" transform="translate(1.1,1.1)" d="M 0 0"/></g><g transform="translate(334,312)"><g><g>
<path d="M25,0H0v24h25V0L25,0z" fill="none" stroke="none" stroke-dasharray="none"/>
<rect x="1.1" y="1.1" width="22.8" height="21.8" fill="none"/>
<circle fill="none" cx="12.5" cy="0" r="0.1"/>
<circle fill="none" cx="18.7" cy="0" r="0.1"/>
<circle fill="none" cx="25" cy="6.1" r="0.1"/>
<circle fill="none" cx="25" cy="12" r="0.1"/>
<circle fill="none" cx="25" cy="17.9" r="0.1"/>
<circle fill="none" cx="18.7" cy="24" r="0.1"/>
<circle fill="none" cx="12.5" cy="24" r="0.1"/>
<circle fill="none" cx="6.3" cy="24" r="0.1"/>
<circle fill="none" cx="0" cy="17.9" r="0.1"/>
<circle fill="none" cx="0" cy="12" r="0.1"/>
<circle fill="none" cx="0" cy="6.1" r="0.1"/>
<circle fill="none" cx="6.3" cy="0" r="0.1"/>
</g></g><rect stroke="none" stroke-width="0" fill="#FFFFFF" x="0" y="0" width="0" height="0" transform="translate(24.9,11.9)"/><path stroke="#000000" fill="none" d=""/><text font-family="OpenSansCondensedLight" font-size="14pt" fill="black" transform="translate(24.9,11.9)"/><rect stroke-width="0" fill="none" width="22.8" height="21.8" transform="translate(1.1,1.1)"/><text font-family="OpenSansCondensedLight" font-size="14pt" fill="black" transform="translate(1.1,1.1)" text-anchor="middle"><tspan x="11.4" y="17.2">U</tspan></text><path stroke="#000000" fill="none" transform="translate(1.1,1.1)" d="M 0 0"/></g><g transform="translate(153,103)"><g><g>
<path d="M54,0H0v24h54V0L54,0z" fill="none" stroke="none" stroke-dasharray="none"/>
<rect x="2.4" y="1.1" width="49.3" height="21.8" fill="none"/>
<circle fill="none" cx="27" cy="0" r="0.1"/>
<circle fill="none" cx="40.4" cy="0" r="0.1"/>
<circle fill="none" cx="54" cy="6.1" r="0.1"/>
<circle fill="none" cx="54" cy="12" r="0.1"/>
<circle fill="none" cx="54" cy="17.9" r="0.1"/>
<circle fill="none" cx="40.4" cy="24" r="0.1"/>
<circle fill="none" cx="27" cy="24" r="0.1"/>
<circle fill="none" cx="13.6" cy="24" r="0.1"/>
<circle fill="none" cx="0" cy="17.9" r="0.1"/>
<circle fill="none" cx="0" cy="12" r="0.1"/>
<circle fill="none" cx="0" cy="6.1" r="0.1"/>
<circle fill="none" cx="13.6" cy="0" r="0.1"/>
</g></g><rect stroke="none" stroke-width="0" fill="#FFFFFF" x="0" y="0" width="0" height="0" transform="translate(53.9,11.9)"/><path stroke="#000000" fill="none" d=""/><text font-family="OpenSansCondensedLight" font-size="14pt" fill="black" transform="translate(53.9,11.9)"/><rect stroke-width="0" fill="none" width="49.3" height="21.8" transform="translate(2.4,1.1)"/><text font-family="OpenSansCondensedLight" font-size="14pt" fill="black" transform="translate(2.4,1.1)" text-anchor="middle"><tspan x="24.6" y="17.2">O(t-1)</tspan></text><path stroke="#000000" fill="none" transform="translate(2.4,1.1)" d="M 0 0"/></g><g transform="translate(479,307)"><g><g>
<path d="M25,0H0v24h25V0L25,0z" fill="none" stroke="none" stroke-dasharray="none"/>
<rect x="1.1" y="1.1" width="22.8" height="21.8" fill="none"/>
<circle fill="none" cx="12.5" cy="0" r="0.1"/>
<circle fill="none" cx="18.7" cy="0" r="0.1"/>
<circle fill="none" cx="25" cy="6.1" r="0.1"/>
<circle fill="none" cx="25" cy="12" r="0.1"/>
<circle fill="none" cx="25" cy="17.9" r="0.1"/>
<circle fill="none" cx="18.7" cy="24" r="0.1"/>
<circle fill="none" cx="12.5" cy="24" r="0.1"/>
<circle fill="none" cx="6.3" cy="24" r="0.1"/>
<circle fill="none" cx="0" cy="17.9" r="0.1"/>
<circle fill="none" cx="0" cy="12" r="0.1"/>
<circle fill="none" cx="0" cy="6.1" r="0.1"/>
<circle fill="none" cx="6.3" cy="0" r="0.1"/>
</g></g><rect stroke="none" stroke-width="0" fill="#FFFFFF" x="0" y="0" width="0" height="0" transform="translate(24.9,11.9)"/><path stroke="#000000" fill="none" d=""/><text font-family="OpenSansCondensedLight" font-size="14pt" fill="black" transform="translate(24.9,11.9)"/><rect stroke-width="0" fill="none" width="22.8" height="21.8" transform="translate(1.1,1.1)"/><text font-family="OpenSansCondensedLight" font-size="14pt" fill="black" transform="translate(1.1,1.1)" text-anchor="middle"><tspan x="11.4" y="17.2">U</tspan></text><path stroke="#000000" fill="none" transform="translate(1.1,1.1)" d="M 0 0"/></g><g transform="translate(191,218)"><g><g>
<path d="M54,0H0v24h54V0L54,0z" fill="none" stroke="none" stroke-dasharray="none"/>
<rect x="2.4" y="1.1" width="49.3" height="21.8" fill="none"/>
<circle fill="none" cx="27" cy="0" r="0.1"/>
<circle fill="none" cx="40.4" cy="0" r="0.1"/>
<circle fill="none" cx="54" cy="6.1" r="0.1"/>
<circle fill="none" cx="54" cy="12" r="0.1"/>
<circle fill="none" cx="54" cy="17.9" r="0.1"/>
<circle fill="none" cx="40.4" cy="24" r="0.1"/>
<circle fill="none" cx="27" cy="24" r="0.1"/>
<circle fill="none" cx="13.6" cy="24" r="0.1"/>
<circle fill="none" cx="0" cy="17.9" r="0.1"/>
<circle fill="none" cx="0" cy="12" r="0.1"/>
<circle fill="none" cx="0" cy="6.1" r="0.1"/>
<circle fill="none" cx="13.6" cy="0" r="0.1"/>
</g></g><rect stroke="none" stroke-width="0" fill="#FFFFFF" x="0" y="0" width="0" height="0" transform="translate(53.9,11.9)"/><path stroke="#000000" fill="none" d=""/><text font-family="OpenSansCondensedLight" font-size="14pt" fill="black" transform="translate(53.9,11.9)"/><rect stroke-width="0" fill="none" width="49.3" height="21.8" transform="translate(2.4,1.1)"/><text font-family="OpenSansCondensedLight" font-size="14pt" fill="black" transform="translate(2.4,1.1)" text-anchor="middle"><tspan x="24.6" y="17.2">S(t-1)</tspan></text><path stroke="#000000" fill="none" transform="translate(2.4,1.1)" d="M 0 0"/></g><g transform="translate(298,104)"><g><g>
<path d="M54,0H0v24h54V0L54,0z" fill="none" stroke="none" stroke-dasharray="none"/>
<rect x="2.4" y="1.1" width="49.3" height="21.8" fill="none"/>
<circle fill="none" cx="27" cy="0" r="0.1"/>
<circle fill="none" cx="40.4" cy="0" r="0.1"/>
<circle fill="none" cx="54" cy="6.1" r="0.1"/>
<circle fill="none" cx="54" cy="12" r="0.1"/>
<circle fill="none" cx="54" cy="17.9" r="0.1"/>
<circle fill="none" cx="40.4" cy="24" r="0.1"/>
<circle fill="none" cx="27" cy="24" r="0.1"/>
<circle fill="none" cx="13.6" cy="24" r="0.1"/>
<circle fill="none" cx="0" cy="17.9" r="0.1"/>
<circle fill="none" cx="0" cy="12" r="0.1"/>
<circle fill="none" cx="0" cy="6.1" r="0.1"/>
<circle fill="none" cx="13.6" cy="0" r="0.1"/>
</g></g><rect stroke="none" stroke-width="0" fill="#FFFFFF" x="0" y="0" width="0" height="0" transform="translate(53.9,11.9)"/><path stroke="#000000" fill="none" d=""/><text font-family="OpenSansCondensedLight" font-size="14pt" fill="black" transform="translate(53.9,11.9)"/><rect stroke-width="0" fill="none" width="49.3" height="21.8" transform="translate(2.4,1.1)"/><text font-family="OpenSansCondensedLight" font-size="14pt" fill="black" transform="translate(2.4,1.1)" text-anchor="middle"><tspan x="24.6" y="17.2">O(t)</tspan></text><path stroke="#000000" fill="none" transform="translate(2.4,1.1)" d="M 0 0"/></g><g transform="translate(447,102)"><g><g>
<path d="M54,0H0v24h54V0L54,0z" fill="none" stroke="none" stroke-dasharray="none"/>
<rect x="2.4" y="1.1" width="49.3" height="21.8" fill="none"/>
<circle fill="none" cx="27" cy="0" r="0.1"/>
<circle fill="none" cx="40.4" cy="0" r="0.1"/>
<circle fill="none" cx="54" cy="6.1" r="0.1"/>
<circle fill="none" cx="54" cy="12" r="0.1"/>
<circle fill="none" cx="54" cy="17.9" r="0.1"/>
<circle fill="none" cx="40.4" cy="24" r="0.1"/>
<circle fill="none" cx="27" cy="24" r="0.1"/>
<circle fill="none" cx="13.6" cy="24" r="0.1"/>
<circle fill="none" cx="0" cy="17.9" r="0.1"/>
<circle fill="none" cx="0" cy="12" r="0.1"/>
<circle fill="none" cx="0" cy="6.1" r="0.1"/>
<circle fill="none" cx="13.6" cy="0" r="0.1"/>
</g></g><rect stroke="none" stroke-width="0" fill="#FFFFFF" x="0" y="0" width="0" height="0" transform="translate(53.9,11.9)"/><path stroke="#000000" fill="none" d=""/><text font-family="OpenSansCondensedLight" font-size="14pt" fill="black" transform="translate(53.9,11.9)"/><rect stroke-width="0" fill="none" width="49.3" height="21.8" transform="translate(2.4,1.1)"/><text font-family="OpenSansCondensedLight" font-size="14pt" fill="black" transform="translate(2.4,1.1)" text-anchor="middle"><tspan x="24.6" y="17.2">O(t+1)</tspan></text><path stroke="#000000" fill="none" transform="translate(2.4,1.1)" d="M 0 0"/></g><g><path stroke="black" stroke-dasharray="none" d="M 180 234 180 140" fill="none"/><path fill="black" stroke="black" d="" transform="translate(180,234) scale(1,1) rotate(-90)"/><path fill="black" stroke="black" d="M 8 0 L 0 4 L 8 8 z" transform="translate(184,132) scale(1,1) rotate(-270)"/><g><g label-idx="0" cursor="move" transform="translate(180, 187)"><rect fill="white" rx="3" ry="3" x="0" y="0" width="0" height="0"/><text text-anchor="middle" font-size="14pt" font-family="OpenSansCondensedLight" y="0.8em" display="none" xml:space="preserve" transform="translate(0,0)"/></g></g></g><g transform="translate(160,362)"><g><g>
<path d="M54,0H0v24h54V0L54,0z" fill="none" stroke="none" stroke-dasharray="none"/>
<rect x="2.4" y="1.1" width="49.3" height="21.8" fill="none"/>
<circle fill="none" cx="27" cy="0" r="0.1"/>
<circle fill="none" cx="40.4" cy="0" r="0.1"/>
<circle fill="none" cx="54" cy="6.1" r="0.1"/>
<circle fill="none" cx="54" cy="12" r="0.1"/>
<circle fill="none" cx="54" cy="17.9" r="0.1"/>
<circle fill="none" cx="40.4" cy="24" r="0.1"/>
<circle fill="none" cx="27" cy="24" r="0.1"/>
<circle fill="none" cx="13.6" cy="24" r="0.1"/>
<circle fill="none" cx="0" cy="17.9" r="0.1"/>
<circle fill="none" cx="0" cy="12" r="0.1"/>
<circle fill="none" cx="0" cy="6.1" r="0.1"/>
<circle fill="none" cx="13.6" cy="0" r="0.1"/>
</g></g><rect stroke="none" stroke-width="0" fill="#FFFFFF" x="0" y="0" width="0" height="0" transform="translate(53.9,11.9)"/><path stroke="#000000" fill="none" d=""/><text font-family="OpenSansCondensedLight" font-size="14pt" fill="black" transform="translate(53.9,11.9)"/><rect stroke-width="0" fill="none" width="49.3" height="21.8" transform="translate(2.4,1.1)"/><text font-family="OpenSansCondensedLight" font-size="14pt" fill="black" transform="translate(2.4,1.1)" text-anchor="middle"><tspan x="24.6" y="17.2">X(t-1)</tspan></text><path stroke="#000000" fill="none" transform="translate(2.4,1.1)" d="M 0 0"/></g><g transform="translate(336,219)"><g><g>
<path d="M54,0H0v24h54V0L54,0z" fill="none" stroke="none" stroke-dasharray="none"/>
<rect x="2.4" y="1.1" width="49.3" height="21.8" fill="none"/>
<circle fill="none" cx="27" cy="0" r="0.1"/>
<circle fill="none" cx="40.4" cy="0" r="0.1"/>
<circle fill="none" cx="54" cy="6.1" r="0.1"/>
<circle fill="none" cx="54" cy="12" r="0.1"/>
<circle fill="none" cx="54" cy="17.9" r="0.1"/>
<circle fill="none" cx="40.4" cy="24" r="0.1"/>
<circle fill="none" cx="27" cy="24" r="0.1"/>
<circle fill="none" cx="13.6" cy="24" r="0.1"/>
<circle fill="none" cx="0" cy="17.9" r="0.1"/>
<circle fill="none" cx="0" cy="12" r="0.1"/>
<circle fill="none" cx="0" cy="6.1" r="0.1"/>
<circle fill="none" cx="13.6" cy="0" r="0.1"/>
</g></g><rect stroke="none" stroke-width="0" fill="#FFFFFF" x="0" y="0" width="0" height="0" transform="translate(53.9,11.9)"/><path stroke="#000000" fill="none" d=""/><text font-family="OpenSansCondensedLight" font-size="14pt" fill="black" transform="translate(53.9,11.9)"/><rect stroke-width="0" fill="none" width="49.3" height="21.8" transform="translate(2.4,1.1)"/><text font-family="OpenSansCondensedLight" font-size="14pt" fill="black" transform="translate(2.4,1.1)" text-anchor="middle"><tspan x="24.6" y="17.2">S(t)</tspan></text><path stroke="#000000" fill="none" transform="translate(2.4,1.1)" d="M 0 0"/></g><g transform="translate(485,217)"><g><g>
<path d="M54,0H0v24h54V0L54,0z" fill="none" stroke="none" stroke-dasharray="none"/>
<rect x="2.4" y="1.1" width="49.3" height="21.8" fill="none"/>
<circle fill="none" cx="27" cy="0" r="0.1"/>
<circle fill="none" cx="40.4" cy="0" r="0.1"/>
<circle fill="none" cx="54" cy="6.1" r="0.1"/>
<circle fill="none" cx="54" cy="12" r="0.1"/>
<circle fill="none" cx="54" cy="17.9" r="0.1"/>
<circle fill="none" cx="40.4" cy="24" r="0.1"/>
<circle fill="none" cx="27" cy="24" r="0.1"/>
<circle fill="none" cx="13.6" cy="24" r="0.1"/>
<circle fill="none" cx="0" cy="17.9" r="0.1"/>
<circle fill="none" cx="0" cy="12" r="0.1"/>
<circle fill="none" cx="0" cy="6.1" r="0.1"/>
<circle fill="none" cx="13.6" cy="0" r="0.1"/>
</g></g><rect stroke="none" stroke-width="0" fill="#FFFFFF" x="0" y="0" width="0" height="0" transform="translate(53.9,11.9)"/><path stroke="#000000" fill="none" d=""/><text font-family="OpenSansCondensedLight" font-size="14pt" fill="black" transform="translate(53.9,11.9)"/><rect stroke-width="0" fill="none" width="49.3" height="21.8" transform="translate(2.4,1.1)"/><text font-family="OpenSansCondensedLight" font-size="14pt" fill="black" transform="translate(2.4,1.1)" text-anchor="middle"><tspan x="24.6" y="17.2">S(t+1)</tspan></text><path stroke="#000000" fill="none" transform="translate(2.4,1.1)" d="M 0 0"/></g><g><path stroke="black" stroke-dasharray="none" d="M 155 256 60 256" fill="none"/><path fill="black" stroke="black" d="M 8 0 L 0 4 L 8 8 z" transform="translate(163,260) scale(1,1) rotate(-180)"/><path fill="black" stroke="black" d="" transform="translate(60,256) scale(1,1) rotate(0)"/><g><g label-idx="0" cursor="move" transform="translate(107.5, 256)"><rect fill="white" rx="3" ry="3" x="0" y="0" width="0" height="0"/><text text-anchor="middle" font-size="14pt" font-family="OpenSansCondensedLight" y="0.8em" display="none" xml:space="preserve" transform="translate(0,0)"/></g></g></g><g transform="translate(305,364)"><g><g>
<path d="M54,0H0v24h54V0L54,0z" fill="none" stroke="none" stroke-dasharray="none"/>
<rect x="2.4" y="1.1" width="49.3" height="21.8" fill="none"/>
<circle fill="none" cx="27" cy="0" r="0.1"/>
<circle fill="none" cx="40.4" cy="0" r="0.1"/>
<circle fill="none" cx="54" cy="6.1" r="0.1"/>
<circle fill="none" cx="54" cy="12" r="0.1"/>
<circle fill="none" cx="54" cy="17.9" r="0.1"/>
<circle fill="none" cx="40.4" cy="24" r="0.1"/>
<circle fill="none" cx="27" cy="24" r="0.1"/>
<circle fill="none" cx="13.6" cy="24" r="0.1"/>
<circle fill="none" cx="0" cy="17.9" r="0.1"/>
<circle fill="none" cx="0" cy="12" r="0.1"/>
<circle fill="none" cx="0" cy="6.1" r="0.1"/>
<circle fill="none" cx="13.6" cy="0" r="0.1"/>
</g></g><rect stroke="none" stroke-width="0" fill="#FFFFFF" x="0" y="0" width="0" height="0" transform="translate(53.9,11.9)"/><path stroke="#000000" fill="none" d=""/><text font-family="OpenSansCondensedLight" font-size="14pt" fill="black" transform="translate(53.9,11.9)"/><rect stroke-width="0" fill="none" width="49.3" height="21.8" transform="translate(2.4,1.1)"/><text font-family="OpenSansCondensedLight" font-size="14pt" fill="black" transform="translate(2.4,1.1)" text-anchor="middle"><tspan x="24.6" y="17.2">X(t)</tspan></text><path stroke="#000000" fill="none" transform="translate(2.4,1.1)" d="M 0 0"/></g><g transform="translate(454,362)"><g><g>
<path d="M54,0H0v24h54V0L54,0z" fill="none" stroke="none" stroke-dasharray="none"/>
<rect x="2.4" y="1.1" width="49.3" height="21.8" fill="none"/>
<circle fill="none" cx="27" cy="0" r="0.1"/>
<circle fill="none" cx="40.4" cy="0" r="0.1"/>
<circle fill="none" cx="54" cy="6.1" r="0.1"/>
<circle fill="none" cx="54" cy="12" r="0.1"/>
<circle fill="none" cx="54" cy="17.9" r="0.1"/>
<circle fill="none" cx="40.4" cy="24" r="0.1"/>
<circle fill="none" cx="27" cy="24" r="0.1"/>
<circle fill="none" cx="13.6" cy="24" r="0.1"/>
<circle fill="none" cx="0" cy="17.9" r="0.1"/>
<circle fill="none" cx="0" cy="12" r="0.1"/>
<circle fill="none" cx="0" cy="6.1" r="0.1"/>
<circle fill="none" cx="13.6" cy="0" r="0.1"/>
</g></g><rect stroke="none" stroke-width="0" fill="#FFFFFF" x="0" y="0" width="0" height="0" transform="translate(53.9,11.9)"/><path stroke="#000000" fill="none" d=""/><text font-family="OpenSansCondensedLight" font-size="14pt" fill="black" transform="translate(53.9,11.9)"/><rect stroke-width="0" fill="none" width="49.3" height="21.8" transform="translate(2.4,1.1)"/><text font-family="OpenSansCondensedLight" font-size="14pt" fill="black" transform="translate(2.4,1.1)" text-anchor="middle"><tspan x="24.6" y="17.2">X(t1)</tspan></text><path stroke="#000000" fill="none" transform="translate(2.4,1.1)" d="M 0 0"/></g><g transform="translate(169,240)"><g><g>
<path d="M20,0H0v24h20V0L20,0z" fill="none" stroke="none" stroke-dasharray="none"/>
<rect x="0.9" y="1.1" width="18.3" height="21.8" fill="none"/>
<circle fill="none" cx="10" cy="0" r="0.1"/>
<circle fill="none" cx="15" cy="0" r="0.1"/>
<circle fill="none" cx="20" cy="6.1" r="0.1"/>
<circle fill="none" cx="20" cy="12" r="0.1"/>
<circle fill="none" cx="20" cy="17.9" r="0.1"/>
<circle fill="none" cx="15" cy="24" r="0.1"/>
<circle fill="none" cx="10" cy="24" r="0.1"/>
<circle fill="none" cx="5" cy="24" r="0.1"/>
<circle fill="none" cx="0" cy="17.9" r="0.1"/>
<circle fill="none" cx="0" cy="12" r="0.1"/>
<circle fill="none" cx="0" cy="6.1" r="0.1"/>
<circle fill="none" cx="5" cy="0" r="0.1"/>
</g></g><rect stroke="none" stroke-width="0" fill="#FFFFFF" x="0" y="0" width="0" height="0" transform="translate(19.9,11.9)"/><path stroke="#000000" fill="none" d=""/><text font-family="OpenSansCondensedLight" font-size="14pt" fill="black" transform="translate(19.9,11.9)"/><rect stroke-width="0" fill="none" width="18.3" height="21.8" transform="translate(0.9,1.1)"/><text font-family="OpenSansCondensedLight" font-size="14pt" fill="black" transform="translate(0.9,1.1)" text-anchor="middle"><tspan x="9.1" y="17.2">f</tspan></text><path stroke="#000000" fill="none" transform="translate(0.9,1.1)" d="M 0 0"/></g><g><path stroke="black" stroke-dasharray="none" d="M 201 254 303 254" fill="none"/><path fill="black" stroke="black" d="" transform="translate(201,254) scale(1,1) rotate(0)"/><path fill="black" stroke="black" d="M 8 0 L 0 4 L 8 8 z" transform="translate(311,258) scale(1,1) rotate(-180)"/><g><g label-idx="0" cursor="move" transform="translate(252, 254)"><rect fill="white" rx="3" ry="3" x="0" y="0" width="0" height="0"/><text text-anchor="middle" font-size="14pt" font-family="OpenSansCondensedLight" y="0.8em" display="none" xml:space="preserve" transform="translate(0,0)"/></g></g></g><g transform="translate(319,242)"><g><g>
<path d="M20,0H0v24h20V0L20,0z" fill="none" stroke="none" stroke-dasharray="none"/>
<rect x="0.9" y="1.1" width="18.3" height="21.8" fill="none"/>
<circle fill="none" cx="10" cy="0" r="0.1"/>
<circle fill="none" cx="15" cy="0" r="0.1"/>
<circle fill="none" cx="20" cy="6.1" r="0.1"/>
<circle fill="none" cx="20" cy="12" r="0.1"/>
<circle fill="none" cx="20" cy="17.9" r="0.1"/>
<circle fill="none" cx="15" cy="24" r="0.1"/>
<circle fill="none" cx="10" cy="24" r="0.1"/>
<circle fill="none" cx="5" cy="24" r="0.1"/>
<circle fill="none" cx="0" cy="17.9" r="0.1"/>
<circle fill="none" cx="0" cy="12" r="0.1"/>
<circle fill="none" cx="0" cy="6.1" r="0.1"/>
<circle fill="none" cx="5" cy="0" r="0.1"/>
</g></g><rect stroke="none" stroke-width="0" fill="#FFFFFF" x="0" y="0" width="0" height="0" transform="translate(19.9,11.9)"/><path stroke="#000000" fill="none" d=""/><text font-family="OpenSansCondensedLight" font-size="14pt" fill="black" transform="translate(19.9,11.9)"/><rect stroke-width="0" fill="none" width="18.3" height="21.8" transform="translate(0.9,1.1)"/><text font-family="OpenSansCondensedLight" font-size="14pt" fill="black" transform="translate(0.9,1.1)" text-anchor="middle"><tspan x="9.1" y="17.2">f</tspan></text><path stroke="#000000" fill="none" transform="translate(0.9,1.1)" d="M 0 0"/></g><g><path stroke="black" stroke-dasharray="none" d="M 182 282 182 359" fill="none"/><path fill="black" stroke="black" d="M 8 0 L 0 4 L 8 8 z" transform="translate(186,274) scale(1,1) rotate(-270)"/><path fill="black" stroke="black" d="" transform="translate(182,359) scale(1,1) rotate(-90)"/><g><g label-idx="0" cursor="move" transform="translate(182, 320.5)"><rect fill="white" rx="3" ry="3" x="0" y="0" width="0" height="0"/><text text-anchor="middle" font-size="14pt" font-family="OpenSansCondensedLight" y="0.8em" display="none" xml:space="preserve" transform="translate(0,0)"/></g></g></g><g transform="translate(468,243)"><g><g>
<path d="M20,0H0v24h20V0L20,0z" fill="none" stroke="none" stroke-dasharray="none"/>
<rect x="0.9" y="1.1" width="18.3" height="21.8" fill="none"/>
<circle fill="none" cx="10" cy="0" r="0.1"/>
<circle fill="none" cx="15" cy="0" r="0.1"/>
<circle fill="none" cx="20" cy="6.1" r="0.1"/>
<circle fill="none" cx="20" cy="12" r="0.1"/>
<circle fill="none" cx="20" cy="17.9" r="0.1"/>
<circle fill="none" cx="15" cy="24" r="0.1"/>
<circle fill="none" cx="10" cy="24" r="0.1"/>
<circle fill="none" cx="5" cy="24" r="0.1"/>
<circle fill="none" cx="0" cy="17.9" r="0.1"/>
<circle fill="none" cx="0" cy="12" r="0.1"/>
<circle fill="none" cx="0" cy="6.1" r="0.1"/>
<circle fill="none" cx="5" cy="0" r="0.1"/>
</g></g><rect stroke="none" stroke-width="0" fill="#FFFFFF" x="0" y="0" width="0" height="0" transform="translate(19.9,11.9)"/><path stroke="#000000" fill="none" d=""/><text font-family="OpenSansCondensedLight" font-size="14pt" fill="black" transform="translate(19.9,11.9)"/><rect stroke-width="0" fill="none" width="18.3" height="21.8" transform="translate(0.9,1.1)"/><text font-family="OpenSansCondensedLight" font-size="14pt" fill="black" transform="translate(0.9,1.1)" text-anchor="middle"><tspan x="9.1" y="17.2">f</tspan></text><path stroke="#000000" fill="none" transform="translate(0.9,1.1)" d="M 0 0"/></g><g><path stroke="black" stroke-dasharray="none" d="M 349 254 452 254" fill="none"/><path fill="black" stroke="black" d="" transform="translate(349,254) scale(1,1) rotate(0)"/><path fill="black" stroke="black" d="M 8 0 L 0 4 L 8 8 z" transform="translate(460,258) scale(1,1) rotate(-180)"/><g><g label-idx="0" cursor="move" transform="translate(400.5, 254)"><rect fill="white" rx="3" ry="3" x="0" y="0" width="0" height="0"/><text text-anchor="middle" font-size="14pt" font-family="OpenSansCondensedLight" y="0.8em" display="none" xml:space="preserve" transform="translate(0,0)"/></g></g></g><g><path stroke="black" stroke-dasharray="none" d="M 326 234 326 140" fill="none"/><path fill="black" stroke="black" d="" transform="translate(326,234) scale(1,1) rotate(-90)"/><path fill="black" stroke="black" d="M 8 0 L 0 4 L 8 8 z" transform="translate(330,132) scale(1,1) rotate(-270)"/><g><g label-idx="0" cursor="move" transform="translate(326, 187)"><rect fill="white" rx="3" ry="3" x="0" y="0" width="0" height="0"/><text text-anchor="middle" font-size="14pt" font-family="OpenSansCondensedLight" y="0.8em" display="none" xml:space="preserve" transform="translate(0,0)"/></g></g></g><g><path stroke="black" stroke-dasharray="none" d="M 479 234 479 139" fill="none"/><path fill="black" stroke="black" d="" transform="translate(479,234) scale(1,1) rotate(-90)"/><path fill="black" stroke="black" d="M 8 0 L 0 4 L 8 8 z" transform="translate(483,131) scale(1,1) rotate(-270)"/><g><g label-idx="0" cursor="move" transform="translate(479, 186.5)"><rect fill="white" rx="3" ry="3" x="0" y="0" width="0" height="0"/><text text-anchor="middle" font-size="14pt" font-family="OpenSansCondensedLight" y="0.8em" display="none" xml:space="preserve" transform="translate(0,0)"/></g></g></g><g><path stroke="black" stroke-dasharray="none" d="M 498 256 573 256" fill="none"/><path fill="black" stroke="black" d="" transform="translate(498,256) scale(1,1) rotate(0)"/><path fill="black" stroke="black" d="M 8 0 L 0 4 L 8 8 z" transform="translate(581,260) scale(1,1) rotate(-180)"/><g><g label-idx="0" cursor="move" transform="translate(535.5, 256)"><rect fill="white" rx="3" ry="3" x="0" y="0" width="0" height="0"/><text text-anchor="middle" font-size="14pt" font-family="OpenSansCondensedLight" y="0.8em" display="none" xml:space="preserve" transform="translate(0,0)"/></g></g></g><g><path stroke="black" stroke-dasharray="none" d="M 330 282 330 361" fill="none"/><path fill="black" stroke="black" d="M 8 0 L 0 4 L 8 8 z" transform="translate(334,274) scale(1,1) rotate(-270)"/><path fill="black" stroke="black" d="" transform="translate(330,361) scale(1,1) rotate(-90)"/><g><g label-idx="0" cursor="move" transform="translate(330, 321.5)"><rect fill="white" rx="3" ry="3" x="0" y="0" width="0" height="0"/><text text-anchor="middle" font-size="14pt" font-family="OpenSansCondensedLight" y="0.8em" display="none" xml:space="preserve" transform="translate(0,0)"/></g></g></g><g><path stroke="black" stroke-dasharray="none" d="M 479 282 479 363" fill="none"/><path fill="black" stroke="black" d="M 8 0 L 0 4 L 8 8 z" transform="translate(483,274) scale(1,1) rotate(-270)"/><path fill="black" stroke="black" d="" transform="translate(479,363) scale(1,1) rotate(-90)"/><g><g label-idx="0" cursor="move" transform="translate(479, 322.5)"><rect fill="white" rx="3" ry="3" x="0" y="0" width="0" height="0"/><text text-anchor="middle" font-size="14pt" font-family="OpenSansCondensedLight" y="0.8em" display="none" xml:space="preserve" transform="translate(0,0)"/></g></g></g></g><defs/></svg>