<svg xmlns="http://www.w3.org/2000/svg" xmlns:xlink="http://www.w3.org/1999/xlink" version="1.1" width="664" height="867"><g><g model-id="7efc845a-f80e-4e07-b188-593353fba9d2" transform="translate(574,17)"><polygon fill="#000000" points="0,0 4.2,11.2 11.8,2" transform="translate(-5.9,27.3)"></polygon>
<rect fill="none" width="1" height="1" transform="translate(33.3,-0.5)"></rect>
<g><g>
<rect x="0" y="0" width="28.3" height="28.3" opacity="0"></rect>
<path fill="none" stroke="#000000" stroke-width="1" d="M28.3,0C16.7,2.2,7,13.4,0,28.3"></path>
</g></g><rect stroke="none" stroke-width="0" fill="#FFFFFF" x="0" y="0" width="0" height="0"></rect><path stroke="#000000" fill="none"></path><text font-family="OpenSansCondensedLight" font-size="14pt" fill="black" transform="translate(0,0)"></text><rect stroke-width="0" fill="none" width="1" height="1" transform="translate(33.3,-0.5)"></rect><text font-family="OpenSansCondensedLight" font-size="14pt" fill="black" text-decoration="none" transform="translate(33.3,-0.5)"><tspan x="0" y="6.8">100</tspan></text><path stroke="#000000" fill="none" transform="translate(33.3,-0.5)"></path></g><g model-id="7e132f55-cf19-4c01-b267-7c01e92d54b4" transform="translate(163,234)"><g><g>
<path d="M19,0C8.5,0,0,9,0,20s8.5,20,19,20s19,-9,19,-20S29.5,0,19,0L19,0z" stroke="#000000" stroke-dasharray="none" fill="#FFFFFF"></path>
<rect x="3.7" y="10.2" width="30.6" height="19.6" fill="none"></rect>
<circle fill="none" cx="19.1" cy="0" r="0.1"></circle>
<circle fill="none" cx="28.1" cy="2.4" r="0.1"></circle>
<circle fill="none" cx="35.6" cy="10.2" r="0.1"></circle>
<circle fill="none" cx="38" cy="20" r="0.1"></circle>
<circle fill="none" cx="35.6" cy="29.8" r="0.1"></circle>
<circle fill="none" cx="28.3" cy="37.4" r="0.1"></circle>
<circle fill="none" cx="19" cy="40" r="0.1"></circle>
<circle fill="none" cx="9.6" cy="37.4" r="0.1"></circle>
<circle fill="none" cx="2.4" cy="29.8" r="0.1"></circle>
<circle fill="none" cx="0" cy="19.8" r="0.1"></circle>
<circle fill="none" cx="2.4" cy="10.2" r="0.1"></circle>
<circle fill="none" cx="9.9" cy="2.4" r="0.1"></circle>
</g></g><rect stroke="none" stroke-width="0" fill="#FFFFFF" x="0" y="0" width="0" height="0" transform="translate(37.9,19.9)"></rect><path stroke="#000000" fill="none" d=""></path><text font-family="OpenSansCondensedLight" font-size="14pt" fill="black" transform="translate(37.9,19.9)"></text><rect stroke-width="0" fill="none" width="30.6" height="19.6" transform="translate(3.7,10.2)"></rect><text font-family="OpenSansCondensedLight" font-size="14pt" fill="black" transform="translate(3.7,10.2)" text-anchor="middle"><tspan x="15.3" y="16.1"> </tspan></text><path stroke="#000000" fill="none" transform="translate(3.7,10.2)" d="M 0 0"></path></g><g model-id="0cd740e8-9b9a-a2ff-9397-3dd71ca4713f" transform="translate(311,234)"><g><g>
<path d="M19,0C8.5,0,0,9,0,20s8.5,20,19,20s19,-9,19,-20S29.5,0,19,0L19,0z" stroke="#000000" stroke-dasharray="none" fill="#FFFFFF"></path>
<rect x="3.7" y="10.2" width="30.6" height="19.6" fill="none"></rect>
<circle fill="none" cx="19.1" cy="0" r="0.1"></circle>
<circle fill="none" cx="28.1" cy="2.4" r="0.1"></circle>
<circle fill="none" cx="35.6" cy="10.2" r="0.1"></circle>
<circle fill="none" cx="38" cy="20" r="0.1"></circle>
<circle fill="none" cx="35.6" cy="29.8" r="0.1"></circle>
<circle fill="none" cx="28.3" cy="37.4" r="0.1"></circle>
<circle fill="none" cx="19" cy="40" r="0.1"></circle>
<circle fill="none" cx="9.6" cy="37.4" r="0.1"></circle>
<circle fill="none" cx="2.4" cy="29.8" r="0.1"></circle>
<circle fill="none" cx="0" cy="19.8" r="0.1"></circle>
<circle fill="none" cx="2.4" cy="10.2" r="0.1"></circle>
<circle fill="none" cx="9.9" cy="2.4" r="0.1"></circle>
</g></g><rect stroke="none" stroke-width="0" fill="#FFFFFF" x="0" y="0" width="0" height="0" transform="translate(37.9,19.9)"></rect><path stroke="#000000" fill="none" d=""></path><text font-family="OpenSansCondensedLight" font-size="14pt" fill="black" transform="translate(37.9,19.9)"></text><rect stroke-width="0" fill="none" width="30.6" height="19.6" transform="translate(3.7,10.2)"></rect><text font-family="OpenSansCondensedLight" font-size="14pt" fill="black" transform="translate(3.7,10.2)" text-anchor="middle"><tspan x="15.3" y="16.1"> </tspan></text><path stroke="#000000" fill="none" transform="translate(3.7,10.2)" d="M 0 0"></path></g><g model-id="492174f8-3661-f3a1-1c1f-2c0e54562c29" transform="translate(460,234)"><g><g>
<path d="M19,0C8.5,0,0,9,0,20s8.5,20,19,20s19,-9,19,-20S29.5,0,19,0L19,0z" stroke="#000000" stroke-dasharray="none" fill="#FFFFFF"></path>
<rect x="3.7" y="10.2" width="30.6" height="19.6" fill="none"></rect>
<circle fill="none" cx="19.1" cy="0" r="0.1"></circle>
<circle fill="none" cx="28.1" cy="2.4" r="0.1"></circle>
<circle fill="none" cx="35.6" cy="10.2" r="0.1"></circle>
<circle fill="none" cx="38" cy="20" r="0.1"></circle>
<circle fill="none" cx="35.6" cy="29.8" r="0.1"></circle>
<circle fill="none" cx="28.3" cy="37.4" r="0.1"></circle>
<circle fill="none" cx="19" cy="40" r="0.1"></circle>
<circle fill="none" cx="9.6" cy="37.4" r="0.1"></circle>
<circle fill="none" cx="2.4" cy="29.8" r="0.1"></circle>
<circle fill="none" cx="0" cy="19.8" r="0.1"></circle>
<circle fill="none" cx="2.4" cy="10.2" r="0.1"></circle>
<circle fill="none" cx="9.9" cy="2.4" r="0.1"></circle>
</g></g><rect stroke="none" stroke-width="0" fill="#FFFFFF" x="0" y="0" width="0" height="0" transform="translate(37.9,19.9)"></rect><path stroke="#000000" fill="none" d=""></path><text font-family="OpenSansCondensedLight" font-size="14pt" fill="black" transform="translate(37.9,19.9)"></text><rect stroke-width="0" fill="none" width="30.6" height="19.6" transform="translate(3.7,10.2)"></rect><text font-family="OpenSansCondensedLight" font-size="14pt" fill="black" transform="translate(3.7,10.2)" text-anchor="middle"><tspan x="15.3" y="16.1"> </tspan></text><path stroke="#000000" fill="none" transform="translate(3.7,10.2)" d="M 0 0"></path></g><g model-id="defa4759-cd9a-41a1-a65d-29cae5daf7d7" transform="translate(130,265)"><g><g>
<path d="M25,0H0v24h25V0L25,0z" fill="none" stroke="none" stroke-dasharray="none"></path>
<rect x="1.1" y="1.1" width="22.8" height="21.8" fill="none"></rect>
<circle fill="none" cx="12.5" cy="0" r="0.1"></circle>
<circle fill="none" cx="18.7" cy="0" r="0.1"></circle>
<circle fill="none" cx="25" cy="6.1" r="0.1"></circle>
<circle fill="none" cx="25" cy="12" r="0.1"></circle>
<circle fill="none" cx="25" cy="17.9" r="0.1"></circle>
<circle fill="none" cx="18.7" cy="24" r="0.1"></circle>
<circle fill="none" cx="12.5" cy="24" r="0.1"></circle>
<circle fill="none" cx="6.3" cy="24" r="0.1"></circle>
<circle fill="none" cx="0" cy="17.9" r="0.1"></circle>
<circle fill="none" cx="0" cy="12" r="0.1"></circle>
<circle fill="none" cx="0" cy="6.1" r="0.1"></circle>
<circle fill="none" cx="6.3" cy="0" r="0.1"></circle>
</g></g><rect stroke="none" stroke-width="0" fill="#FFFFFF" x="0" y="0" width="0" height="0" transform="translate(24.9,11.9)"></rect><path stroke="#000000" fill="none" d=""></path><text font-family="OpenSansCondensedLight" font-size="14pt" fill="black" transform="translate(24.9,11.9)"></text><rect stroke-width="0" fill="none" width="22.8" height="21.8" transform="translate(1.1,1.1)"></rect><text font-family="OpenSansCondensedLight" font-size="14pt" fill="black" transform="translate(1.1,1.1)" text-anchor="middle"><tspan x="11.4" y="17.2">W</tspan></text><path stroke="#000000" fill="none" transform="translate(1.1,1.1)" d="M 0 0"></path></g><g model-id="7535f7f3-56a3-a3e9-df8d-bf51c01f4e26" transform="translate(154,198)"><g><g>
<path d="M25,0H0v24h25V0L25,0z" fill="none" stroke="none" stroke-dasharray="none"></path>
<rect x="1.1" y="1.1" width="22.8" height="21.8" fill="none"></rect>
<circle fill="none" cx="12.5" cy="0" r="0.1"></circle>
<circle fill="none" cx="18.7" cy="0" r="0.1"></circle>
<circle fill="none" cx="25" cy="6.1" r="0.1"></circle>
<circle fill="none" cx="25" cy="12" r="0.1"></circle>
<circle fill="none" cx="25" cy="17.9" r="0.1"></circle>
<circle fill="none" cx="18.7" cy="24" r="0.1"></circle>
<circle fill="none" cx="12.5" cy="24" r="0.1"></circle>
<circle fill="none" cx="6.3" cy="24" r="0.1"></circle>
<circle fill="none" cx="0" cy="17.9" r="0.1"></circle>
<circle fill="none" cx="0" cy="12" r="0.1"></circle>
<circle fill="none" cx="0" cy="6.1" r="0.1"></circle>
<circle fill="none" cx="6.3" cy="0" r="0.1"></circle>
</g></g><rect stroke="none" stroke-width="0" fill="#FFFFFF" x="0" y="0" width="0" height="0" transform="translate(24.9,11.9)"></rect><path stroke="#000000" fill="none" d=""></path><text font-family="OpenSansCondensedLight" font-size="14pt" fill="black" transform="translate(24.9,11.9)"></text><rect stroke-width="0" fill="none" width="22.8" height="21.8" transform="translate(1.1,1.1)"></rect><text font-family="OpenSansCondensedLight" font-size="14pt" fill="black" transform="translate(1.1,1.1)" text-anchor="middle"><tspan x="11.4" y="17.2">V</tspan></text><path stroke="#000000" fill="none" transform="translate(1.1,1.1)" d="M 0 0"></path></g><g model-id="b5a77962-a3e0-8c47-f923-9be099f1e657" transform="translate(270,261)"><g><g>
<path d="M25,0H0v24h25V0L25,0z" fill="none" stroke="none" stroke-dasharray="none"></path>
<rect x="1.1" y="1.1" width="22.8" height="21.8" fill="none"></rect>
<circle fill="none" cx="12.5" cy="0" r="0.1"></circle>
<circle fill="none" cx="18.7" cy="0" r="0.1"></circle>
<circle fill="none" cx="25" cy="6.1" r="0.1"></circle>
<circle fill="none" cx="25" cy="12" r="0.1"></circle>
<circle fill="none" cx="25" cy="17.9" r="0.1"></circle>
<circle fill="none" cx="18.7" cy="24" r="0.1"></circle>
<circle fill="none" cx="12.5" cy="24" r="0.1"></circle>
<circle fill="none" cx="6.3" cy="24" r="0.1"></circle>
<circle fill="none" cx="0" cy="17.9" r="0.1"></circle>
<circle fill="none" cx="0" cy="12" r="0.1"></circle>
<circle fill="none" cx="0" cy="6.1" r="0.1"></circle>
<circle fill="none" cx="6.3" cy="0" r="0.1"></circle>
</g></g><rect stroke="none" stroke-width="0" fill="#FFFFFF" x="0" y="0" width="0" height="0" transform="translate(24.9,11.9)"></rect><path stroke="#000000" fill="none" d=""></path><text font-family="OpenSansCondensedLight" font-size="14pt" fill="black" transform="translate(24.9,11.9)"></text><rect stroke-width="0" fill="none" width="22.8" height="21.8" transform="translate(1.1,1.1)"></rect><text font-family="OpenSansCondensedLight" font-size="14pt" fill="black" transform="translate(1.1,1.1)" text-anchor="middle"><tspan x="11.4" y="17.2">W</tspan></text><path stroke="#000000" fill="none" transform="translate(1.1,1.1)" d="M 0 0"></path></g><g model-id="b4cfa8c5-5f48-0ca0-ffa8-39faf69049a0" transform="translate(299,208)"><g><g>
<path d="M25,0H0v24h25V0L25,0z" fill="none" stroke="none" stroke-dasharray="none"></path>
<rect x="1.1" y="1.1" width="22.8" height="21.8" fill="none"></rect>
<circle fill="none" cx="12.5" cy="0" r="0.1"></circle>
<circle fill="none" cx="18.7" cy="0" r="0.1"></circle>
<circle fill="none" cx="25" cy="6.1" r="0.1"></circle>
<circle fill="none" cx="25" cy="12" r="0.1"></circle>
<circle fill="none" cx="25" cy="17.9" r="0.1"></circle>
<circle fill="none" cx="18.7" cy="24" r="0.1"></circle>
<circle fill="none" cx="12.5" cy="24" r="0.1"></circle>
<circle fill="none" cx="6.3" cy="24" r="0.1"></circle>
<circle fill="none" cx="0" cy="17.9" r="0.1"></circle>
<circle fill="none" cx="0" cy="12" r="0.1"></circle>
<circle fill="none" cx="0" cy="6.1" r="0.1"></circle>
<circle fill="none" cx="6.3" cy="0" r="0.1"></circle>
</g></g><rect stroke="none" stroke-width="0" fill="#FFFFFF" x="0" y="0" width="0" height="0" transform="translate(24.9,11.9)"></rect><path stroke="#000000" fill="none" d=""></path><text font-family="OpenSansCondensedLight" font-size="14pt" fill="black" transform="translate(24.9,11.9)"></text><rect stroke-width="0" fill="none" width="22.8" height="21.8" transform="translate(1.1,1.1)"></rect><text font-family="OpenSansCondensedLight" font-size="14pt" fill="black" transform="translate(1.1,1.1)" text-anchor="middle"><tspan x="11.4" y="17.2">V</tspan></text><path stroke="#000000" fill="none" transform="translate(1.1,1.1)" d="M 0 0"></path></g><g model-id="4bfee6b1-3e38-cc2d-9429-3ded66470f9e" transform="translate(189,302)"><g><g>
<path d="M25,0H0v24h25V0L25,0z" fill="none" stroke="none" stroke-dasharray="none"></path>
<rect x="1.1" y="1.1" width="22.8" height="21.8" fill="none"></rect>
<circle fill="none" cx="12.5" cy="0" r="0.1"></circle>
<circle fill="none" cx="18.7" cy="0" r="0.1"></circle>
<circle fill="none" cx="25" cy="6.1" r="0.1"></circle>
<circle fill="none" cx="25" cy="12" r="0.1"></circle>
<circle fill="none" cx="25" cy="17.9" r="0.1"></circle>
<circle fill="none" cx="18.7" cy="24" r="0.1"></circle>
<circle fill="none" cx="12.5" cy="24" r="0.1"></circle>
<circle fill="none" cx="6.3" cy="24" r="0.1"></circle>
<circle fill="none" cx="0" cy="17.9" r="0.1"></circle>
<circle fill="none" cx="0" cy="12" r="0.1"></circle>
<circle fill="none" cx="0" cy="6.1" r="0.1"></circle>
<circle fill="none" cx="6.3" cy="0" r="0.1"></circle>
</g></g><rect stroke="none" stroke-width="0" fill="#FFFFFF" x="0" y="0" width="0" height="0" transform="translate(24.9,11.9)"></rect><path stroke="#000000" fill="none" d=""></path><text font-family="OpenSansCondensedLight" font-size="14pt" fill="black" transform="translate(24.9,11.9)"></text><rect stroke-width="0" fill="none" width="22.8" height="21.8" transform="translate(1.1,1.1)"></rect><text font-family="OpenSansCondensedLight" font-size="14pt" fill="black" transform="translate(1.1,1.1)" text-anchor="middle"><tspan x="11.4" y="17.2">U</tspan></text><path stroke="#000000" fill="none" transform="translate(1.1,1.1)" d="M 0 0"></path></g><g model-id="81ad3417-abef-869e-faef-d3e3d7fc0f1f" transform="translate(421,261)"><g><g>
<path d="M25,0H0v24h25V0L25,0z" fill="none" stroke="none" stroke-dasharray="none"></path>
<rect x="1.1" y="1.1" width="22.8" height="21.8" fill="none"></rect>
<circle fill="none" cx="12.5" cy="0" r="0.1"></circle>
<circle fill="none" cx="18.7" cy="0" r="0.1"></circle>
<circle fill="none" cx="25" cy="6.1" r="0.1"></circle>
<circle fill="none" cx="25" cy="12" r="0.1"></circle>
<circle fill="none" cx="25" cy="17.9" r="0.1"></circle>
<circle fill="none" cx="18.7" cy="24" r="0.1"></circle>
<circle fill="none" cx="12.5" cy="24" r="0.1"></circle>
<circle fill="none" cx="6.3" cy="24" r="0.1"></circle>
<circle fill="none" cx="0" cy="17.9" r="0.1"></circle>
<circle fill="none" cx="0" cy="12" r="0.1"></circle>
<circle fill="none" cx="0" cy="6.1" r="0.1"></circle>
<circle fill="none" cx="6.3" cy="0" r="0.1"></circle>
</g></g><rect stroke="none" stroke-width="0" fill="#FFFFFF" x="0" y="0" width="0" height="0" transform="translate(24.9,11.9)"></rect><path stroke="#000000" fill="none" d=""></path><text font-family="OpenSansCondensedLight" font-size="14pt" fill="black" transform="translate(24.9,11.9)"></text><rect stroke-width="0" fill="none" width="22.8" height="21.8" transform="translate(1.1,1.1)"></rect><text font-family="OpenSansCondensedLight" font-size="14pt" fill="black" transform="translate(1.1,1.1)" text-anchor="middle"><tspan x="11.4" y="17.2">W</tspan></text><path stroke="#000000" fill="none" transform="translate(1.1,1.1)" d="M 0 0"></path></g><g model-id="c71808b9-34f8-c8b1-724f-182cbee151d9" transform="translate(449,205)"><g><g>
<path d="M25,0H0v24h25V0L25,0z" fill="none" stroke="none" stroke-dasharray="none"></path>
<rect x="1.1" y="1.1" width="22.8" height="21.8" fill="none"></rect>
<circle fill="none" cx="12.5" cy="0" r="0.1"></circle>
<circle fill="none" cx="18.7" cy="0" r="0.1"></circle>
<circle fill="none" cx="25" cy="6.1" r="0.1"></circle>
<circle fill="none" cx="25" cy="12" r="0.1"></circle>
<circle fill="none" cx="25" cy="17.9" r="0.1"></circle>
<circle fill="none" cx="18.7" cy="24" r="0.1"></circle>
<circle fill="none" cx="12.5" cy="24" r="0.1"></circle>
<circle fill="none" cx="6.3" cy="24" r="0.1"></circle>
<circle fill="none" cx="0" cy="17.9" r="0.1"></circle>
<circle fill="none" cx="0" cy="12" r="0.1"></circle>
<circle fill="none" cx="0" cy="6.1" r="0.1"></circle>
<circle fill="none" cx="6.3" cy="0" r="0.1"></circle>
</g></g><rect stroke="none" stroke-width="0" fill="#FFFFFF" x="0" y="0" width="0" height="0" transform="translate(24.9,11.9)"></rect><path stroke="#000000" fill="none" d=""></path><text font-family="OpenSansCondensedLight" font-size="14pt" fill="black" transform="translate(24.9,11.9)"></text><rect stroke-width="0" fill="none" width="22.8" height="21.8" transform="translate(1.1,1.1)"></rect><text font-family="OpenSansCondensedLight" font-size="14pt" fill="black" transform="translate(1.1,1.1)" text-anchor="middle"><tspan x="11.4" y="17.2">V</tspan></text><path stroke="#000000" fill="none" transform="translate(1.1,1.1)" d="M 0 0"></path></g><g model-id="9ae025b3-d85a-b258-a3e3-c732809a437a" transform="translate(334,312)"><g><g>
<path d="M25,0H0v24h25V0L25,0z" fill="none" stroke="none" stroke-dasharray="none"></path>
<rect x="1.1" y="1.1" width="22.8" height="21.8" fill="none"></rect>
<circle fill="none" cx="12.5" cy="0" r="0.1"></circle>
<circle fill="none" cx="18.7" cy="0" r="0.1"></circle>
<circle fill="none" cx="25" cy="6.1" r="0.1"></circle>
<circle fill="none" cx="25" cy="12" r="0.1"></circle>
<circle fill="none" cx="25" cy="17.9" r="0.1"></circle>
<circle fill="none" cx="18.7" cy="24" r="0.1"></circle>
<circle fill="none" cx="12.5" cy="24" r="0.1"></circle>
<circle fill="none" cx="6.3" cy="24" r="0.1"></circle>
<circle fill="none" cx="0" cy="17.9" r="0.1"></circle>
<circle fill="none" cx="0" cy="12" r="0.1"></circle>
<circle fill="none" cx="0" cy="6.1" r="0.1"></circle>
<circle fill="none" cx="6.3" cy="0" r="0.1"></circle>
</g></g><rect stroke="none" stroke-width="0" fill="#FFFFFF" x="0" y="0" width="0" height="0" transform="translate(24.9,11.9)"></rect><path stroke="#000000" fill="none" d=""></path><text font-family="OpenSansCondensedLight" font-size="14pt" fill="black" transform="translate(24.9,11.9)"></text><rect stroke-width="0" fill="none" width="22.8" height="21.8" transform="translate(1.1,1.1)"></rect><text font-family="OpenSansCondensedLight" font-size="14pt" fill="black" transform="translate(1.1,1.1)" text-anchor="middle"><tspan x="11.4" y="17.2">U</tspan></text><path stroke="#000000" fill="none" transform="translate(1.1,1.1)" d="M 0 0"></path></g><g model-id="9e5fe067-726d-82be-f6c3-66b06a3d02e3" transform="translate(153,103)"><g><g>
<path d="M54,0H0v24h54V0L54,0z" fill="none" stroke="none" stroke-dasharray="none"></path>
<rect x="2.4" y="1.1" width="49.3" height="21.8" fill="none"></rect>
<circle fill="none" cx="27" cy="0" r="0.1"></circle>
<circle fill="none" cx="40.4" cy="0" r="0.1"></circle>
<circle fill="none" cx="54" cy="6.1" r="0.1"></circle>
<circle fill="none" cx="54" cy="12" r="0.1"></circle>
<circle fill="none" cx="54" cy="17.9" r="0.1"></circle>
<circle fill="none" cx="40.4" cy="24" r="0.1"></circle>
<circle fill="none" cx="27" cy="24" r="0.1"></circle>
<circle fill="none" cx="13.6" cy="24" r="0.1"></circle>
<circle fill="none" cx="0" cy="17.9" r="0.1"></circle>
<circle fill="none" cx="0" cy="12" r="0.1"></circle>
<circle fill="none" cx="0" cy="6.1" r="0.1"></circle>
<circle fill="none" cx="13.6" cy="0" r="0.1"></circle>
</g></g><rect stroke="none" stroke-width="0" fill="#FFFFFF" x="0" y="0" width="0" height="0" transform="translate(53.9,11.9)"></rect><path stroke="#000000" fill="none" d=""></path><text font-family="OpenSansCondensedLight" font-size="14pt" fill="black" transform="translate(53.9,11.9)"></text><rect stroke-width="0" fill="none" width="49.3" height="21.8" transform="translate(2.4,1.1)"></rect><text font-family="OpenSansCondensedLight" font-size="14pt" fill="black" transform="translate(2.4,1.1)" text-anchor="middle"><tspan x="24.6" y="17.2">O(t-1)</tspan></text><path stroke="#000000" fill="none" transform="translate(2.4,1.1)" d="M 0 0"></path></g><g model-id="452778ec-cc89-14c3-80ce-b28008f91f0f" transform="translate(479,307)"><g><g>
<path d="M25,0H0v24h25V0L25,0z" fill="none" stroke="none" stroke-dasharray="none"></path>
<rect x="1.1" y="1.1" width="22.8" height="21.8" fill="none"></rect>
<circle fill="none" cx="12.5" cy="0" r="0.1"></circle>
<circle fill="none" cx="18.7" cy="0" r="0.1"></circle>
<circle fill="none" cx="25" cy="6.1" r="0.1"></circle>
<circle fill="none" cx="25" cy="12" r="0.1"></circle>
<circle fill="none" cx="25" cy="17.9" r="0.1"></circle>
<circle fill="none" cx="18.7" cy="24" r="0.1"></circle>
<circle fill="none" cx="12.5" cy="24" r="0.1"></circle>
<circle fill="none" cx="6.3" cy="24" r="0.1"></circle>
<circle fill="none" cx="0" cy="17.9" r="0.1"></circle>
<circle fill="none" cx="0" cy="12" r="0.1"></circle>
<circle fill="none" cx="0" cy="6.1" r="0.1"></circle>
<circle fill="none" cx="6.3" cy="0" r="0.1"></circle>
</g></g><rect stroke="none" stroke-width="0" fill="#FFFFFF" x="0" y="0" width="0" height="0" transform="translate(24.9,11.9)"></rect><path stroke="#000000" fill="none" d=""></path><text font-family="OpenSansCondensedLight" font-size="14pt" fill="black" transform="translate(24.9,11.9)"></text><rect stroke-width="0" fill="none" width="22.8" height="21.8" transform="translate(1.1,1.1)"></rect><text font-family="OpenSansCondensedLight" font-size="14pt" fill="black" transform="translate(1.1,1.1)" text-anchor="middle"><tspan x="11.4" y="17.2">U</tspan></text><path stroke="#000000" fill="none" transform="translate(1.1,1.1)" d="M 0 0"></path></g><g model-id="b0d6665c-741f-bce6-76fb-cc87c99c4323" transform="translate(447,102)"><g><g>
<path d="M54,0H0v24h54V0L54,0z" fill="none" stroke="none" stroke-dasharray="none"></path>
<rect x="2.4" y="1.1" width="49.3" height="21.8" fill="none"></rect>
<circle fill="none" cx="27" cy="0" r="0.1"></circle>
<circle fill="none" cx="40.4" cy="0" r="0.1"></circle>
<circle fill="none" cx="54" cy="6.1" r="0.1"></circle>
<circle fill="none" cx="54" cy="12" r="0.1"></circle>
<circle fill="none" cx="54" cy="17.9" r="0.1"></circle>
<circle fill="none" cx="40.4" cy="24" r="0.1"></circle>
<circle fill="none" cx="27" cy="24" r="0.1"></circle>
<circle fill="none" cx="13.6" cy="24" r="0.1"></circle>
<circle fill="none" cx="0" cy="17.9" r="0.1"></circle>
<circle fill="none" cx="0" cy="12" r="0.1"></circle>
<circle fill="none" cx="0" cy="6.1" r="0.1"></circle>
<circle fill="none" cx="13.6" cy="0" r="0.1"></circle>
</g></g><rect stroke="none" stroke-width="0" fill="#FFFFFF" x="0" y="0" width="0" height="0" transform="translate(53.9,11.9)"></rect><path stroke="#000000" fill="none" d=""></path><text font-family="OpenSansCondensedLight" font-size="14pt" fill="black" transform="translate(53.9,11.9)"></text><rect stroke-width="0" fill="none" width="49.3" height="21.8" transform="translate(2.4,1.1)"></rect><text font-family="OpenSansCondensedLight" font-size="14pt" fill="black" transform="translate(2.4,1.1)" text-anchor="middle"><tspan x="24.6" y="17.2">O(t+1)</tspan></text><path stroke="#000000" fill="none" transform="translate(2.4,1.1)" d="M 0 0"></path></g><g model-id="9e77bf83-bafe-ad8b-e7b3-809398f611cc" transform="translate(298,104)"><g><g>
<path d="M54,0H0v24h54V0L54,0z" fill="none" stroke="none" stroke-dasharray="none"></path>
<rect x="2.4" y="1.1" width="49.3" height="21.8" fill="none"></rect>
<circle fill="none" cx="27" cy="0" r="0.1"></circle>
<circle fill="none" cx="40.4" cy="0" r="0.1"></circle>
<circle fill="none" cx="54" cy="6.1" r="0.1"></circle>
<circle fill="none" cx="54" cy="12" r="0.1"></circle>
<circle fill="none" cx="54" cy="17.9" r="0.1"></circle>
<circle fill="none" cx="40.4" cy="24" r="0.1"></circle>
<circle fill="none" cx="27" cy="24" r="0.1"></circle>
<circle fill="none" cx="13.6" cy="24" r="0.1"></circle>
<circle fill="none" cx="0" cy="17.9" r="0.1"></circle>
<circle fill="none" cx="0" cy="12" r="0.1"></circle>
<circle fill="none" cx="0" cy="6.1" r="0.1"></circle>
<circle fill="none" cx="13.6" cy="0" r="0.1"></circle>
</g></g><rect stroke="none" stroke-width="0" fill="#FFFFFF" x="0" y="0" width="0" height="0" transform="translate(53.9,11.9)"></rect><path stroke="#000000" fill="none" d=""></path><text font-family="OpenSansCondensedLight" font-size="14pt" fill="black" transform="translate(53.9,11.9)"></text><rect stroke-width="0" fill="none" width="49.3" height="21.8" transform="translate(2.4,1.1)"></rect><text font-family="OpenSansCondensedLight" font-size="14pt" fill="black" transform="translate(2.4,1.1)" text-anchor="middle"><tspan x="24.6" y="17.2">O(t)</tspan></text><path stroke="#000000" fill="none" transform="translate(2.4,1.1)" d="M 0 0"></path></g><g model-id="b7e16eb9-a5af-05cd-7aa9-7db21be9770f" transform="translate(191,218)"><g><g>
<path d="M54,0H0v24h54V0L54,0z" fill="none" stroke="none" stroke-dasharray="none"></path>
<rect x="2.4" y="1.1" width="49.3" height="21.8" fill="none"></rect>
<circle fill="none" cx="27" cy="0" r="0.1"></circle>
<circle fill="none" cx="40.4" cy="0" r="0.1"></circle>
<circle fill="none" cx="54" cy="6.1" r="0.1"></circle>
<circle fill="none" cx="54" cy="12" r="0.1"></circle>
<circle fill="none" cx="54" cy="17.9" r="0.1"></circle>
<circle fill="none" cx="40.4" cy="24" r="0.1"></circle>
<circle fill="none" cx="27" cy="24" r="0.1"></circle>
<circle fill="none" cx="13.6" cy="24" r="0.1"></circle>
<circle fill="none" cx="0" cy="17.9" r="0.1"></circle>
<circle fill="none" cx="0" cy="12" r="0.1"></circle>
<circle fill="none" cx="0" cy="6.1" r="0.1"></circle>
<circle fill="none" cx="13.6" cy="0" r="0.1"></circle>
</g></g><rect stroke="none" stroke-width="0" fill="#FFFFFF" x="0" y="0" width="0" height="0" transform="translate(53.9,11.9)"></rect><path stroke="#000000" fill="none" d=""></path><text font-family="OpenSansCondensedLight" font-size="14pt" fill="black" transform="translate(53.9,11.9)"></text><rect stroke-width="0" fill="none" width="49.3" height="21.8" transform="translate(2.4,1.1)"></rect><text font-family="OpenSansCondensedLight" font-size="14pt" fill="black" transform="translate(2.4,1.1)" text-anchor="middle"><tspan x="24.6" y="17.2">S(t-1)</tspan></text><path stroke="#000000" fill="none" transform="translate(2.4,1.1)" d="M 0 0"></path></g><g model-id="8be374d5-f992-4f52-f29b-ba8e89037256" transform="translate(336,219)"><g><g>
<path d="M54,0H0v24h54V0L54,0z" fill="none" stroke="none" stroke-dasharray="none"></path>
<rect x="2.4" y="1.1" width="49.3" height="21.8" fill="none"></rect>
<circle fill="none" cx="27" cy="0" r="0.1"></circle>
<circle fill="none" cx="40.4" cy="0" r="0.1"></circle>
<circle fill="none" cx="54" cy="6.1" r="0.1"></circle>
<circle fill="none" cx="54" cy="12" r="0.1"></circle>
<circle fill="none" cx="54" cy="17.9" r="0.1"></circle>
<circle fill="none" cx="40.4" cy="24" r="0.1"></circle>
<circle fill="none" cx="27" cy="24" r="0.1"></circle>
<circle fill="none" cx="13.6" cy="24" r="0.1"></circle>
<circle fill="none" cx="0" cy="17.9" r="0.1"></circle>
<circle fill="none" cx="0" cy="12" r="0.1"></circle>
<circle fill="none" cx="0" cy="6.1" r="0.1"></circle>
<circle fill="none" cx="13.6" cy="0" r="0.1"></circle>
</g></g><rect stroke="none" stroke-width="0" fill="#FFFFFF" x="0" y="0" width="0" height="0" transform="translate(53.9,11.9)"></rect><path stroke="#000000" fill="none" d=""></path><text font-family="OpenSansCondensedLight" font-size="14pt" fill="black" transform="translate(53.9,11.9)"></text><rect stroke-width="0" fill="none" width="49.3" height="21.8" transform="translate(2.4,1.1)"></rect><text font-family="OpenSansCondensedLight" font-size="14pt" fill="black" transform="translate(2.4,1.1)" text-anchor="middle"><tspan x="24.6" y="17.2">S(t)</tspan></text><path stroke="#000000" fill="none" transform="translate(2.4,1.1)" d="M 0 0"></path></g><g model-id="ce3fe5e5-964b-42ed-ed78-d87de0786149" transform="translate(160,362)"><g><g>
<path d="M54,0H0v24h54V0L54,0z" fill="none" stroke="none" stroke-dasharray="none"></path>
<rect x="2.4" y="1.1" width="49.3" height="21.8" fill="none"></rect>
<circle fill="none" cx="27" cy="0" r="0.1"></circle>
<circle fill="none" cx="40.4" cy="0" r="0.1"></circle>
<circle fill="none" cx="54" cy="6.1" r="0.1"></circle>
<circle fill="none" cx="54" cy="12" r="0.1"></circle>
<circle fill="none" cx="54" cy="17.9" r="0.1"></circle>
<circle fill="none" cx="40.4" cy="24" r="0.1"></circle>
<circle fill="none" cx="27" cy="24" r="0.1"></circle>
<circle fill="none" cx="13.6" cy="24" r="0.1"></circle>
<circle fill="none" cx="0" cy="17.9" r="0.1"></circle>
<circle fill="none" cx="0" cy="12" r="0.1"></circle>
<circle fill="none" cx="0" cy="6.1" r="0.1"></circle>
<circle fill="none" cx="13.6" cy="0" r="0.1"></circle>
</g></g><rect stroke="none" stroke-width="0" fill="#FFFFFF" x="0" y="0" width="0" height="0" transform="translate(53.9,11.9)"></rect><path stroke="#000000" fill="none" d=""></path><text font-family="OpenSansCondensedLight" font-size="14pt" fill="black" transform="translate(53.9,11.9)"></text><rect stroke-width="0" fill="none" width="49.3" height="21.8" transform="translate(2.4,1.1)"></rect><text font-family="OpenSansCondensedLight" font-size="14pt" fill="black" transform="translate(2.4,1.1)" text-anchor="middle"><tspan x="24.6" y="17.2">X(t-1)</tspan></text><path stroke="#000000" fill="none" transform="translate(2.4,1.1)" d="M 0 0"></path></g><g model-id="5a645db4-bebe-4207-a9f7-80e0661b6add"><path stroke="black" stroke-dasharray="none" d="M 180 234 180 140"></path><path fill="black" stroke="black" d="" transform="translate(180,234) scale(1,1) rotate(-90)"></path><path fill="black" stroke="black" d="M 8 0 L 0 4 L 8 8 z" transform="translate(184,132) scale(1,1) rotate(-270)"></path><g><g label-idx="0" cursor="move" transform="translate(180, 187)"><rect fill="white" rx="3" ry="3" x="0" y="0" width="0" height="0"></rect><text text-anchor="middle" font-size="14pt" font-family="OpenSansCondensedLight" y="0.8em" display="none" xml:space="preserve" transform="translate(0,0)"></text></g></g></g><g model-id="e30bd438-721f-485e-f3d9-465b93f2eb50" transform="translate(485,217)"><g><g>
<path d="M54,0H0v24h54V0L54,0z" fill="none" stroke="none" stroke-dasharray="none"></path>
<rect x="2.4" y="1.1" width="49.3" height="21.8" fill="none"></rect>
<circle fill="none" cx="27" cy="0" r="0.1"></circle>
<circle fill="none" cx="40.4" cy="0" r="0.1"></circle>
<circle fill="none" cx="54" cy="6.1" r="0.1"></circle>
<circle fill="none" cx="54" cy="12" r="0.1"></circle>
<circle fill="none" cx="54" cy="17.9" r="0.1"></circle>
<circle fill="none" cx="40.4" cy="24" r="0.1"></circle>
<circle fill="none" cx="27" cy="24" r="0.1"></circle>
<circle fill="none" cx="13.6" cy="24" r="0.1"></circle>
<circle fill="none" cx="0" cy="17.9" r="0.1"></circle>
<circle fill="none" cx="0" cy="12" r="0.1"></circle>
<circle fill="none" cx="0" cy="6.1" r="0.1"></circle>
<circle fill="none" cx="13.6" cy="0" r="0.1"></circle>
</g></g><rect stroke="none" stroke-width="0" fill="#FFFFFF" x="0" y="0" width="0" height="0" transform="translate(53.9,11.9)"></rect><path stroke="#000000" fill="none" d=""></path><text font-family="OpenSansCondensedLight" font-size="14pt" fill="black" transform="translate(53.9,11.9)"></text><rect stroke-width="0" fill="none" width="49.3" height="21.8" transform="translate(2.4,1.1)"></rect><text font-family="OpenSansCondensedLight" font-size="14pt" fill="black" transform="translate(2.4,1.1)" text-anchor="middle"><tspan x="24.6" y="17.2">S(t+1)</tspan></text><path stroke="#000000" fill="none" transform="translate(2.4,1.1)" d="M 0 0"></path></g><g model-id="607b975b-c253-4761-bc24-35910334bbbf"><path stroke="black" stroke-dasharray="none" d="M 155 256 60 256"></path><path fill="black" stroke="black" d="M 8 0 L 0 4 L 8 8 z" transform="translate(163,260) scale(1,1) rotate(-180)"></path><path fill="black" stroke="black" d="" transform="translate(60,256) scale(1,1) rotate(0)"></path><g><g label-idx="0" cursor="move" transform="translate(107.5, 256)"><rect fill="white" rx="3" ry="3" x="0" y="0" width="0" height="0"></rect><text text-anchor="middle" font-size="14pt" font-family="OpenSansCondensedLight" y="0.8em" display="none" xml:space="preserve" transform="translate(0,0)"></text></g></g></g><g model-id="dde1de0d-dbe0-522d-ea44-438097cb8fd3" transform="translate(454,362)"><g><g>
<path d="M54,0H0v24h54V0L54,0z" fill="none" stroke="none" stroke-dasharray="none"></path>
<rect x="2.4" y="1.1" width="49.3" height="21.8" fill="none"></rect>
<circle fill="none" cx="27" cy="0" r="0.1"></circle>
<circle fill="none" cx="40.4" cy="0" r="0.1"></circle>
<circle fill="none" cx="54" cy="6.1" r="0.1"></circle>
<circle fill="none" cx="54" cy="12" r="0.1"></circle>
<circle fill="none" cx="54" cy="17.9" r="0.1"></circle>
<circle fill="none" cx="40.4" cy="24" r="0.1"></circle>
<circle fill="none" cx="27" cy="24" r="0.1"></circle>
<circle fill="none" cx="13.6" cy="24" r="0.1"></circle>
<circle fill="none" cx="0" cy="17.9" r="0.1"></circle>
<circle fill="none" cx="0" cy="12" r="0.1"></circle>
<circle fill="none" cx="0" cy="6.1" r="0.1"></circle>
<circle fill="none" cx="13.6" cy="0" r="0.1"></circle>
</g></g><rect stroke="none" stroke-width="0" fill="#FFFFFF" x="0" y="0" width="0" height="0" transform="translate(53.9,11.9)"></rect><path stroke="#000000" fill="none" d=""></path><text font-family="OpenSansCondensedLight" font-size="14pt" fill="black" transform="translate(53.9,11.9)"></text><rect stroke-width="0" fill="none" width="49.3" height="21.8" transform="translate(2.4,1.1)"></rect><text font-family="OpenSansCondensedLight" font-size="14pt" fill="black" transform="translate(2.4,1.1)" text-anchor="middle"><tspan x="24.6" y="17.2">X(t1)</tspan></text><path stroke="#000000" fill="none" transform="translate(2.4,1.1)" d="M 0 0"></path></g><g model-id="b30673d4-1d59-8835-c609-eaa2fb6ca0bd" transform="translate(169,240)"><g><g>
<path d="M20,0H0v24h20V0L20,0z" fill="none" stroke="none" stroke-dasharray="none"></path>
<rect x="0.9" y="1.1" width="18.3" height="21.8" fill="none"></rect>
<circle fill="none" cx="10" cy="0" r="0.1"></circle>
<circle fill="none" cx="15" cy="0" r="0.1"></circle>
<circle fill="none" cx="20" cy="6.1" r="0.1"></circle>
<circle fill="none" cx="20" cy="12" r="0.1"></circle>
<circle fill="none" cx="20" cy="17.9" r="0.1"></circle>
<circle fill="none" cx="15" cy="24" r="0.1"></circle>
<circle fill="none" cx="10" cy="24" r="0.1"></circle>
<circle fill="none" cx="5" cy="24" r="0.1"></circle>
<circle fill="none" cx="0" cy="17.9" r="0.1"></circle>
<circle fill="none" cx="0" cy="12" r="0.1"></circle>
<circle fill="none" cx="0" cy="6.1" r="0.1"></circle>
<circle fill="none" cx="5" cy="0" r="0.1"></circle>
</g></g><rect stroke="none" stroke-width="0" fill="#FFFFFF" x="0" y="0" width="0" height="0" transform="translate(19.9,11.9)"></rect><path stroke="#000000" fill="none" d=""></path><text font-family="OpenSansCondensedLight" font-size="14pt" fill="black" transform="translate(19.9,11.9)"></text><rect stroke-width="0" fill="none" width="18.3" height="21.8" transform="translate(0.9,1.1)"></rect><text font-family="OpenSansCondensedLight" font-size="14pt" fill="black" transform="translate(0.9,1.1)" text-anchor="middle"><tspan x="9.1" y="17.2">f</tspan></text><path stroke="#000000" fill="none" transform="translate(0.9,1.1)" d="M 0 0"></path></g><g model-id="e59c515b-d8f9-4d92-0715-089cfd4ec576" transform="translate(305,364)"><g><g>
<path d="M54,0H0v24h54V0L54,0z" fill="none" stroke="none" stroke-dasharray="none"></path>
<rect x="2.4" y="1.1" width="49.3" height="21.8" fill="none"></rect>
<circle fill="none" cx="27" cy="0" r="0.1"></circle>
<circle fill="none" cx="40.4" cy="0" r="0.1"></circle>
<circle fill="none" cx="54" cy="6.1" r="0.1"></circle>
<circle fill="none" cx="54" cy="12" r="0.1"></circle>
<circle fill="none" cx="54" cy="17.9" r="0.1"></circle>
<circle fill="none" cx="40.4" cy="24" r="0.1"></circle>
<circle fill="none" cx="27" cy="24" r="0.1"></circle>
<circle fill="none" cx="13.6" cy="24" r="0.1"></circle>
<circle fill="none" cx="0" cy="17.9" r="0.1"></circle>
<circle fill="none" cx="0" cy="12" r="0.1"></circle>
<circle fill="none" cx="0" cy="6.1" r="0.1"></circle>
<circle fill="none" cx="13.6" cy="0" r="0.1"></circle>
</g></g><rect stroke="none" stroke-width="0" fill="#FFFFFF" x="0" y="0" width="0" height="0" transform="translate(53.9,11.9)"></rect><path stroke="#000000" fill="none" d=""></path><text font-family="OpenSansCondensedLight" font-size="14pt" fill="black" transform="translate(53.9,11.9)"></text><rect stroke-width="0" fill="none" width="49.3" height="21.8" transform="translate(2.4,1.1)"></rect><text font-family="OpenSansCondensedLight" font-size="14pt" fill="black" transform="translate(2.4,1.1)" text-anchor="middle"><tspan x="24.6" y="17.2">X(t)</tspan></text><path stroke="#000000" fill="none" transform="translate(2.4,1.1)" d="M 0 0"></path></g><g model-id="7b10cb07-de0e-e5a2-7fe0-ccd991aa18d0" transform="translate(319,242)"><g><g>
<path d="M20,0H0v24h20V0L20,0z" fill="none" stroke="none" stroke-dasharray="none"></path>
<rect x="0.9" y="1.1" width="18.3" height="21.8" fill="none"></rect>
<circle fill="none" cx="10" cy="0" r="0.1"></circle>
<circle fill="none" cx="15" cy="0" r="0.1"></circle>
<circle fill="none" cx="20" cy="6.1" r="0.1"></circle>
<circle fill="none" cx="20" cy="12" r="0.1"></circle>
<circle fill="none" cx="20" cy="17.9" r="0.1"></circle>
<circle fill="none" cx="15" cy="24" r="0.1"></circle>
<circle fill="none" cx="10" cy="24" r="0.1"></circle>
<circle fill="none" cx="5" cy="24" r="0.1"></circle>
<circle fill="none" cx="0" cy="17.9" r="0.1"></circle>
<circle fill="none" cx="0" cy="12" r="0.1"></circle>
<circle fill="none" cx="0" cy="6.1" r="0.1"></circle>
<circle fill="none" cx="5" cy="0" r="0.1"></circle>
</g></g><rect stroke="none" stroke-width="0" fill="#FFFFFF" x="0" y="0" width="0" height="0" transform="translate(19.9,11.9)"></rect><path stroke="#000000" fill="none" d=""></path><text font-family="OpenSansCondensedLight" font-size="14pt" fill="black" transform="translate(19.9,11.9)"></text><rect stroke-width="0" fill="none" width="18.3" height="21.8" transform="translate(0.9,1.1)"></rect><text font-family="OpenSansCondensedLight" font-size="14pt" fill="black" transform="translate(0.9,1.1)" text-anchor="middle"><tspan x="9.1" y="17.2">f</tspan></text><path stroke="#000000" fill="none" transform="translate(0.9,1.1)" d="M 0 0"></path></g><g model-id="3f049737-475a-49f1-b31a-dbcc6204cc39"><path stroke="black" stroke-dasharray="none" d="M 201 254 303 254"></path><path fill="black" stroke="black" d="" transform="translate(201,254) scale(1,1) rotate(0)"></path><path fill="black" stroke="black" d="M 8 0 L 0 4 L 8 8 z" transform="translate(311,258) scale(1,1) rotate(-180)"></path><g><g label-idx="0" cursor="move" transform="translate(252, 254)"><rect fill="white" rx="3" ry="3" x="0" y="0" width="0" height="0"></rect><text text-anchor="middle" font-size="14pt" font-family="OpenSansCondensedLight" y="0.8em" display="none" xml:space="preserve" transform="translate(0,0)"></text></g></g></g><g model-id="5dc37ea6-4355-5a83-1300-7b9d3586b4c1" transform="translate(468,243)"><g><g>
<path d="M20,0H0v24h20V0L20,0z" fill="none" stroke="none" stroke-dasharray="none"></path>
<rect x="0.9" y="1.1" width="18.3" height="21.8" fill="none"></rect>
<circle fill="none" cx="10" cy="0" r="0.1"></circle>
<circle fill="none" cx="15" cy="0" r="0.1"></circle>
<circle fill="none" cx="20" cy="6.1" r="0.1"></circle>
<circle fill="none" cx="20" cy="12" r="0.1"></circle>
<circle fill="none" cx="20" cy="17.9" r="0.1"></circle>
<circle fill="none" cx="15" cy="24" r="0.1"></circle>
<circle fill="none" cx="10" cy="24" r="0.1"></circle>
<circle fill="none" cx="5" cy="24" r="0.1"></circle>
<circle fill="none" cx="0" cy="17.9" r="0.1"></circle>
<circle fill="none" cx="0" cy="12" r="0.1"></circle>
<circle fill="none" cx="0" cy="6.1" r="0.1"></circle>
<circle fill="none" cx="5" cy="0" r="0.1"></circle>
</g></g><rect stroke="none" stroke-width="0" fill="#FFFFFF" x="0" y="0" width="0" height="0" transform="translate(19.9,11.9)"></rect><path stroke="#000000" fill="none" d=""></path><text font-family="OpenSansCondensedLight" font-size="14pt" fill="black" transform="translate(19.9,11.9)"></text><rect stroke-width="0" fill="none" width="18.3" height="21.8" transform="translate(0.9,1.1)"></rect><text font-family="OpenSansCondensedLight" font-size="14pt" fill="black" transform="translate(0.9,1.1)" text-anchor="middle"><tspan x="9.1" y="17.2">f</tspan></text><path stroke="#000000" fill="none" transform="translate(0.9,1.1)" d="M 0 0"></path></g><g model-id="c41c6299-b7a2-42f0-8db6-bff36a4a0849"><path stroke="black" stroke-dasharray="none" d="M 182 282 182 359"></path><path fill="black" stroke="black" d="M 8 0 L 0 4 L 8 8 z" transform="translate(186,274) scale(1,1) rotate(-270)"></path><path fill="black" stroke="black" d="" transform="translate(182,359) scale(1,1) rotate(-90)"></path><g><g label-idx="0" cursor="move" transform="translate(182, 320.5)"><rect fill="white" rx="3" ry="3" x="0" y="0" width="0" height="0"></rect><text text-anchor="middle" font-size="14pt" font-family="OpenSansCondensedLight" y="0.8em" display="none" xml:space="preserve" transform="translate(0,0)"></text></g></g></g><g model-id="2d434242-11eb-445c-a718-c51932a4538f"><path stroke="black" stroke-dasharray="none" d="M 349 254 452 254"></path><path fill="black" stroke="black" d="" transform="translate(349,254) scale(1,1) rotate(0)"></path><path fill="black" stroke="black" d="M 8 0 L 0 4 L 8 8 z" transform="translate(460,258) scale(1,1) rotate(-180)"></path><g><g label-idx="0" cursor="move" transform="translate(400.5, 254)"><rect fill="white" rx="3" ry="3" x="0" y="0" width="0" height="0"></rect><text text-anchor="middle" font-size="14pt" font-family="OpenSansCondensedLight" y="0.8em" display="none" xml:space="preserve" transform="translate(0,0)"></text></g></g></g><g model-id="d11ade49-0015-4b6a-80bf-a3ecf9e7ca5a"><path stroke="black" stroke-dasharray="none" d="M 326 234 326 140"></path><path fill="black" stroke="black" d="" transform="translate(326,234) scale(1,1) rotate(-90)"></path><path fill="black" stroke="black" d="M 8 0 L 0 4 L 8 8 z" transform="translate(330,132) scale(1,1) rotate(-270)"></path><g><g label-idx="0" cursor="move" transform="translate(326, 187)"><rect fill="white" rx="3" ry="3" x="0" y="0" width="0" height="0"></rect><text text-anchor="middle" font-size="14pt" font-family="OpenSansCondensedLight" y="0.8em" display="none" xml:space="preserve" transform="translate(0,0)"></text></g></g></g><g model-id="55662066-9730-4835-9267-56720d3301e3"><path stroke="black" stroke-dasharray="none" d="M 479 234 479 139"></path><path fill="black" stroke="black" d="" transform="translate(479,234) scale(1,1) rotate(-90)"></path><path fill="black" stroke="black" d="M 8 0 L 0 4 L 8 8 z" transform="translate(483,131) scale(1,1) rotate(-270)"></path><g><g label-idx="0" cursor="move" transform="translate(479, 186.5)"><rect fill="white" rx="3" ry="3" x="0" y="0" width="0" height="0"></rect><text text-anchor="middle" font-size="14pt" font-family="OpenSansCondensedLight" y="0.8em" display="none" xml:space="preserve" transform="translate(0,0)"></text></g></g></g><g model-id="502d6788-0027-43c4-9f00-5015124b4c7d"><path stroke="black" stroke-dasharray="none" d="M 498 256 573 256"></path><path fill="black" stroke="black" d="" transform="translate(498,256) scale(1,1) rotate(0)"></path><path fill="black" stroke="black" d="M 8 0 L 0 4 L 8 8 z" transform="translate(581,260) scale(1,1) rotate(-180)"></path><g><g label-idx="0" cursor="move" transform="translate(535.5, 256)"><rect fill="white" rx="3" ry="3" x="0" y="0" width="0" height="0"></rect><text text-anchor="middle" font-size="14pt" font-family="OpenSansCondensedLight" y="0.8em" display="none" xml:space="preserve" transform="translate(0,0)"></text></g></g></g><g model-id="1b6364e4-0eff-4964-8301-6fd770a7f410"><path stroke="black" stroke-dasharray="none" d="M 330 282 330 361"></path><path fill="black" stroke="black" d="M 8 0 L 0 4 L 8 8 z" transform="translate(334,274) scale(1,1) rotate(-270)"></path><path fill="black" stroke="black" d="" transform="translate(330,361) scale(1,1) rotate(-90)"></path><g><g label-idx="0" cursor="move" transform="translate(330, 321.5)"><rect fill="white" rx="3" ry="3" x="0" y="0" width="0" height="0"></rect><text text-anchor="middle" font-size="14pt" font-family="OpenSansCondensedLight" y="0.8em" display="none" xml:space="preserve" transform="translate(0,0)"></text></g></g></g><g model-id="e26a101a-9808-41ba-8c53-d013621c28aa"><path stroke="black" stroke-dasharray="none" d="M 479 282 479 363"></path><path fill="black" stroke="black" d="M 8 0 L 0 4 L 8 8 z" transform="translate(483,274) scale(1,1) rotate(-270)"></path><path fill="black" stroke="black" d="" transform="translate(479,363) scale(1,1) rotate(-90)"></path><g><g label-idx="0" cursor="move" transform="translate(479, 322.5)"><rect fill="white" rx="3" ry="3" x="0" y="0" width="0" height="0"></rect><text text-anchor="middle" font-size="14pt" font-family="OpenSansCondensedLight" y="0.8em" display="none" xml:space="preserve" transform="translate(0,0)"></text></g></g></g></g><defs></defs></svg>