<svg xmlns="http://www.w3.org/2000/svg" xmlns:xlink="http://www.w3.org/1999/xlink" version="1.1" width="877.0999755859375" height="457.7875061035156" viewBox="16.899999618530273 9.3125 893.9999752044678 467.1000061035156"><g><g transform="translate(313,192)"><g><g>
<g stroke="#000000" stroke-dasharray="none" fill="#FFFFFF">
    <path d="M238,177.8H12C5.4,177.8,0,171,0,162.6V15.2C0,6.8,5.4,0,12,0h225.9c6.6,0,12,6.8,12,15.2v147.4C250,171,244.6,177.8,238,177.8z"/>
</g>
<rect x="11.1" y="6.1" width="229.2" height="161.6" fill="none"/>
<circle cx="125.6" cy="0.2" r="0.1"/>
<circle cx="199.9" cy="0" r="0.1"/>
<circle cx="250" cy="21.5" r="0.1"/>
<circle cx="250" cy="86.9" r="0.1"/>
<circle cx="250" cy="145.2" r="0.1"/>
<circle cx="199.8" cy="178" r="0.1"/>
<circle cx="125.7" cy="177.6" r="0.1"/>
<circle cx="42.2" cy="177.8" r="0.1"/>
<circle cx="0" cy="145.4" r="0.1"/>
<circle cx="0" cy="88.9" r="0.1"/>
<circle cx="0" cy="38.1" r="0.1"/>
<circle cx="42.3" cy="0.2" r="0.1"/>
</g></g><rect stroke="none" stroke-width="0" fill="#FFFFFF" x="0" y="0" width="0" height="0" transform="translate(249.9,86.8)"/><path stroke="#000000" fill="none" d=""/><text font-family="OpenSansCondensedLight" font-size="14pt" fill="black" transform="translate(249.9,86.8)"/><rect stroke-width="0" fill="none" width="229.2" height="161.6" transform="translate(11.1,6.1)"/><text font-family="OpenSansCondensedLight" font-size="14pt" fill="black" transform="translate(11.1,6.1)" text-anchor="middle"><tspan x="114.6" y="87.1"> </tspan></text><path stroke="#000000" fill="none" transform="translate(11.1,6.1)" d="M 0 0"/></g><g transform="translate(814,20)"><polygon fill="#000000" points="0,0 4.2,11.2 11.8,2" transform="translate(-5.9,27.3)"/>
<rect fill="none" width="1" height="1" transform="translate(33.3,-0.5)"/>
<g><g>
<rect x="0" y="0" width="28.3" height="28.3" opacity="0"/>
<path fill="none" stroke="#000000" stroke-width="1" d="M28.3,0C16.7,2.2,7,13.4,0,28.3"/>
</g></g><rect stroke="none" stroke-width="0" fill="#FFFFFF" x="0" y="0" width="0" height="0"/><path stroke="#000000" fill="none"/><text font-family="OpenSansCondensedLight" font-size="14pt" fill="black" transform="translate(0,0)"/><rect stroke-width="0" fill="none" width="1" height="1" transform="translate(33.3,-0.5)"/><text font-family="OpenSansCondensedLight" font-size="14pt" fill="black" text-decoration="none" transform="translate(33.3,-0.5)"><tspan x="0" y="6.8">300</tspan></text><path stroke="#000000" fill="none" transform="translate(33.3,-0.5)"/></g><g transform="translate(17,192)"><g><g>
<g stroke="#000000" stroke-dasharray="none" fill="#FFFFFF">
    <path d="M238,177.8H12C5.4,177.8,0,171,0,162.6V15.2C0,6.8,5.4,0,12,0h225.9c6.6,0,12,6.8,12,15.2v147.4C250,171,244.6,177.8,238,177.8z"/>
</g>
<rect x="11.1" y="6.1" width="229.2" height="161.6" fill="none"/>
<circle cx="125.6" cy="0.2" r="0.1"/>
<circle cx="199.9" cy="0" r="0.1"/>
<circle cx="250" cy="21.5" r="0.1"/>
<circle cx="250" cy="86.9" r="0.1"/>
<circle cx="250" cy="145.2" r="0.1"/>
<circle cx="199.8" cy="178" r="0.1"/>
<circle cx="125.7" cy="177.6" r="0.1"/>
<circle cx="42.2" cy="177.8" r="0.1"/>
<circle cx="0" cy="145.4" r="0.1"/>
<circle cx="0" cy="88.9" r="0.1"/>
<circle cx="0" cy="38.1" r="0.1"/>
<circle cx="42.3" cy="0.2" r="0.1"/>
</g></g><rect stroke="none" stroke-width="0" fill="#FFFFFF" x="0" y="0" width="0" height="0" transform="translate(249.9,86.8)"/><path stroke="#000000" fill="none" d=""/><text font-family="OpenSansCondensedLight" font-size="14pt" fill="black" transform="translate(249.9,86.8)"/><rect stroke-width="0" fill="none" width="229.2" height="161.6" transform="translate(11.1,6.1)"/><text font-family="OpenSansCondensedLight" font-size="14pt" fill="black" transform="translate(11.1,6.1)" text-anchor="middle"><tspan x="114.6" y="87.1">A</tspan></text><path stroke="#000000" fill="none" transform="translate(11.1,6.1)" d="M 0 0"/></g><g transform="translate(596,194)"><g><g>
<g stroke="#000000" stroke-dasharray="none" fill="#FFFFFF">
    <path d="M238,177.8H12C5.4,177.8,0,171,0,162.6V15.2C0,6.8,5.4,0,12,0h225.9c6.6,0,12,6.8,12,15.2v147.4C250,171,244.6,177.8,238,177.8z"/>
</g>
<rect x="11.1" y="6.1" width="229.2" height="161.6" fill="none"/>
<circle cx="125.6" cy="0.2" r="0.1"/>
<circle cx="199.9" cy="0" r="0.1"/>
<circle cx="250" cy="21.5" r="0.1"/>
<circle cx="250" cy="86.9" r="0.1"/>
<circle cx="250" cy="145.2" r="0.1"/>
<circle cx="199.8" cy="178" r="0.1"/>
<circle cx="125.7" cy="177.6" r="0.1"/>
<circle cx="42.2" cy="177.8" r="0.1"/>
<circle cx="0" cy="145.4" r="0.1"/>
<circle cx="0" cy="88.9" r="0.1"/>
<circle cx="0" cy="38.1" r="0.1"/>
<circle cx="42.3" cy="0.2" r="0.1"/>
</g></g><rect stroke="none" stroke-width="0" fill="#FFFFFF" x="0" y="0" width="0" height="0" transform="translate(249.9,86.8)"/><path stroke="#000000" fill="none" d=""/><text font-family="OpenSansCondensedLight" font-size="14pt" fill="black" transform="translate(249.9,86.8)"/><rect stroke-width="0" fill="none" width="229.2" height="161.6" transform="translate(11.1,6.1)"/><text font-family="OpenSansCondensedLight" font-size="14pt" fill="black" transform="translate(11.1,6.1)" text-anchor="middle"><tspan x="114.6" y="87.1">A</tspan></text><path stroke="#000000" fill="none" transform="translate(11.1,6.1)" d="M 0 0"/></g><g transform="translate(23,406)"><g><g>
<path d="M31.5,0C14.1,0,0,13.7,0,30.5s14.1,30.5,31.5,30.5s31.5,-13.7,31.5,-30.5S49,0,31.5,0L31.5,0z" stroke="#000000" stroke-dasharray="none" fill="#FFFFFF"/>
<rect x="6.2" y="15.5" width="50.7" height="30" fill="none"/>
<circle fill="none" cx="31.6" cy="0" r="0.1"/>
<circle fill="none" cx="46.6" cy="3.7" r="0.1"/>
<circle fill="none" cx="59" cy="15.6" r="0.1"/>
<circle fill="none" cx="63" cy="30.5" r="0.1"/>
<circle fill="none" cx="59" cy="45.5" r="0.1"/>
<circle fill="none" cx="47" cy="57.1" r="0.1"/>
<circle fill="none" cx="31.5" cy="61" r="0.1"/>
<circle fill="none" cx="16" cy="57.1" r="0.1"/>
<circle fill="none" cx="4" cy="45.5" r="0.1"/>
<circle fill="none" cx="0" cy="30.2" r="0.1"/>
<circle fill="none" cx="4" cy="15.6" r="0.1"/>
<circle fill="none" cx="16.4" cy="3.7" r="0.1"/>
</g></g><rect stroke="none" stroke-width="0" fill="#FFFFFF" x="0" y="0" width="0" height="0" transform="translate(62.9,30.4)"/><path stroke="#000000" fill="none" d=""/><text font-family="OpenSansCondensedLight" font-size="14pt" fill="black" transform="translate(62.9,30.4)"/><rect stroke-width="0" fill="none" width="50.7" height="30" transform="translate(6.2,15.5)"/><text font-family="OpenSansCondensedLight" font-size="14pt" fill="black" transform="translate(6.2,15.5)" text-anchor="middle"><tspan x="25.4" y="21.3">X(t-1)</tspan></text><path stroke="#000000" fill="none" transform="translate(6.2,15.5)" d="M 0 0"/></g><g><path stroke="black" stroke-dasharray="none" d="M 59 406 59 378" fill="none"/><path fill="black" stroke="black" d="" transform="translate(59,406) scale(1,1) rotate(-90)"/><path fill="black" stroke="black" d="M 8 0 L 0 4 L 8 8 z" transform="translate(63,370) scale(1,1) rotate(-270)"/><g><g label-idx="0" cursor="move" transform="translate(59, 392)"><rect fill="white" rx="3" ry="3" x="0" y="0" width="0" height="0"/><text text-anchor="middle" font-size="14pt" font-family="OpenSansCondensedLight" y="0.8em" display="none" xml:space="preserve" transform="translate(0,0)"/></g></g></g><g transform="translate(322,402)"><g><g>
<path d="M31.5,0C14.1,0,0,13.7,0,30.5s14.1,30.5,31.5,30.5s31.5,-13.7,31.5,-30.5S49,0,31.5,0L31.5,0z" stroke="#000000" stroke-dasharray="none" fill="#FFFFFF"/>
<rect x="6.2" y="15.5" width="50.7" height="30" fill="none"/>
<circle fill="none" cx="31.6" cy="0" r="0.1"/>
<circle fill="none" cx="46.6" cy="3.7" r="0.1"/>
<circle fill="none" cx="59" cy="15.6" r="0.1"/>
<circle fill="none" cx="63" cy="30.5" r="0.1"/>
<circle fill="none" cx="59" cy="45.5" r="0.1"/>
<circle fill="none" cx="47" cy="57.1" r="0.1"/>
<circle fill="none" cx="31.5" cy="61" r="0.1"/>
<circle fill="none" cx="16" cy="57.1" r="0.1"/>
<circle fill="none" cx="4" cy="45.5" r="0.1"/>
<circle fill="none" cx="0" cy="30.2" r="0.1"/>
<circle fill="none" cx="4" cy="15.6" r="0.1"/>
<circle fill="none" cx="16.4" cy="3.7" r="0.1"/>
</g></g><rect stroke="none" stroke-width="0" fill="#FFFFFF" x="0" y="0" width="0" height="0" transform="translate(62.9,30.4)"/><path stroke="#000000" fill="none" d=""/><text font-family="OpenSansCondensedLight" font-size="14pt" fill="black" transform="translate(62.9,30.4)"/><rect stroke-width="0" fill="none" width="50.7" height="30" transform="translate(6.2,15.5)"/><text font-family="OpenSansCondensedLight" font-size="14pt" fill="black" transform="translate(6.2,15.5)" text-anchor="middle"><tspan x="25.4" y="21.3">X(t)</tspan></text><path stroke="#000000" fill="none" transform="translate(6.2,15.5)" d="M 0 0"/></g><g transform="translate(217,87)"><g><g>
<path d="M31.5,0C14.1,0,0,13.7,0,30.5s14.1,30.5,31.5,30.5s31.5,-13.7,31.5,-30.5S49,0,31.5,0L31.5,0z" stroke="#000000" stroke-dasharray="none" fill="#FFFFFF"/>
<rect x="6.2" y="15.5" width="50.7" height="30" fill="none"/>
<circle fill="none" cx="31.6" cy="0" r="0.1"/>
<circle fill="none" cx="46.6" cy="3.7" r="0.1"/>
<circle fill="none" cx="59" cy="15.6" r="0.1"/>
<circle fill="none" cx="63" cy="30.5" r="0.1"/>
<circle fill="none" cx="59" cy="45.5" r="0.1"/>
<circle fill="none" cx="47" cy="57.1" r="0.1"/>
<circle fill="none" cx="31.5" cy="61" r="0.1"/>
<circle fill="none" cx="16" cy="57.1" r="0.1"/>
<circle fill="none" cx="4" cy="45.5" r="0.1"/>
<circle fill="none" cx="0" cy="30.2" r="0.1"/>
<circle fill="none" cx="4" cy="15.6" r="0.1"/>
<circle fill="none" cx="16.4" cy="3.7" r="0.1"/>
</g></g><rect stroke="none" stroke-width="0" fill="#FFFFFF" x="0" y="0" width="0" height="0" transform="translate(62.9,30.4)"/><path stroke="#000000" fill="none" d=""/><text font-family="OpenSansCondensedLight" font-size="14pt" fill="black" transform="translate(62.9,30.4)"/><rect stroke-width="0" fill="none" width="50.7" height="30" transform="translate(6.2,15.5)"/><text font-family="OpenSansCondensedLight" font-size="14pt" fill="black" transform="translate(6.2,15.5)" text-anchor="middle"><tspan x="25.4" y="21.3">Y(t-1)</tspan></text><path stroke="#000000" fill="none" transform="translate(6.2,15.5)" d="M 0 0"/></g><g transform="translate(608,404)"><g><g>
<path d="M31.5,0C14.1,0,0,13.7,0,30.5s14.1,30.5,31.5,30.5s31.5,-13.7,31.5,-30.5S49,0,31.5,0L31.5,0z" stroke="#000000" stroke-dasharray="none" fill="#FFFFFF"/>
<rect x="6.2" y="15.5" width="50.7" height="30" fill="none"/>
<circle fill="none" cx="31.6" cy="0" r="0.1"/>
<circle fill="none" cx="46.6" cy="3.7" r="0.1"/>
<circle fill="none" cx="59" cy="15.6" r="0.1"/>
<circle fill="none" cx="63" cy="30.5" r="0.1"/>
<circle fill="none" cx="59" cy="45.5" r="0.1"/>
<circle fill="none" cx="47" cy="57.1" r="0.1"/>
<circle fill="none" cx="31.5" cy="61" r="0.1"/>
<circle fill="none" cx="16" cy="57.1" r="0.1"/>
<circle fill="none" cx="4" cy="45.5" r="0.1"/>
<circle fill="none" cx="0" cy="30.2" r="0.1"/>
<circle fill="none" cx="4" cy="15.6" r="0.1"/>
<circle fill="none" cx="16.4" cy="3.7" r="0.1"/>
</g></g><rect stroke="none" stroke-width="0" fill="#FFFFFF" x="0" y="0" width="0" height="0" transform="translate(62.9,30.4)"/><path stroke="#000000" fill="none" d=""/><text font-family="OpenSansCondensedLight" font-size="14pt" fill="black" transform="translate(62.9,30.4)"/><rect stroke-width="0" fill="none" width="50.7" height="30" transform="translate(6.2,15.5)"/><text font-family="OpenSansCondensedLight" font-size="14pt" fill="black" transform="translate(6.2,15.5)" text-anchor="middle"><tspan x="25.4" y="21.3">X(t+1)</tspan></text><path stroke="#000000" fill="none" transform="translate(6.2,15.5)" d="M 0 0"/></g><g transform="translate(509,83)"><g><g>
<path d="M31.5,0C14.1,0,0,13.7,0,30.5s14.1,30.5,31.5,30.5s31.5,-13.7,31.5,-30.5S49,0,31.5,0L31.5,0z" stroke="#000000" stroke-dasharray="none" fill="#FFFFFF"/>
<rect x="6.2" y="15.5" width="50.7" height="30" fill="none"/>
<circle fill="none" cx="31.6" cy="0" r="0.1"/>
<circle fill="none" cx="46.6" cy="3.7" r="0.1"/>
<circle fill="none" cx="59" cy="15.6" r="0.1"/>
<circle fill="none" cx="63" cy="30.5" r="0.1"/>
<circle fill="none" cx="59" cy="45.5" r="0.1"/>
<circle fill="none" cx="47" cy="57.1" r="0.1"/>
<circle fill="none" cx="31.5" cy="61" r="0.1"/>
<circle fill="none" cx="16" cy="57.1" r="0.1"/>
<circle fill="none" cx="4" cy="45.5" r="0.1"/>
<circle fill="none" cx="0" cy="30.2" r="0.1"/>
<circle fill="none" cx="4" cy="15.6" r="0.1"/>
<circle fill="none" cx="16.4" cy="3.7" r="0.1"/>
</g></g><rect stroke="none" stroke-width="0" fill="#FFFFFF" x="0" y="0" width="0" height="0" transform="translate(62.9,30.4)"/><path stroke="#000000" fill="none" d=""/><text font-family="OpenSansCondensedLight" font-size="14pt" fill="black" transform="translate(62.9,30.4)"/><rect stroke-width="0" fill="none" width="50.7" height="30" transform="translate(6.2,15.5)"/><text font-family="OpenSansCondensedLight" font-size="14pt" fill="black" transform="translate(6.2,15.5)" text-anchor="middle"><tspan x="25.4" y="21.3">Y(t)</tspan></text><path stroke="#000000" fill="none" transform="translate(6.2,15.5)" d="M 0 0"/></g><g><path stroke="black" stroke-dasharray="none" d="M 638 404 638 380" fill="none"/><path fill="black" stroke="black" d="" transform="translate(638,404) scale(1,1) rotate(-90)"/><path fill="black" stroke="black" d="M 8 0 L 0 4 L 8 8 z" transform="translate(642,372) scale(1,1) rotate(-270)"/><g><g label-idx="0" cursor="move" transform="translate(638, 392)"><rect fill="white" rx="3" ry="3" x="0" y="0" width="0" height="0"/><text text-anchor="middle" font-size="14pt" font-family="OpenSansCondensedLight" y="0.8em" display="none" xml:space="preserve" transform="translate(0,0)"/></g></g></g><g transform="translate(774,85)"><g><g>
<path d="M31.5,0C14.1,0,0,13.7,0,30.5s14.1,30.5,31.5,30.5s31.5,-13.7,31.5,-30.5S49,0,31.5,0L31.5,0z" stroke="#000000" stroke-dasharray="none" fill="#FFFFFF"/>
<rect x="6.2" y="15.5" width="50.7" height="30" fill="none"/>
<circle fill="none" cx="31.6" cy="0" r="0.1"/>
<circle fill="none" cx="46.6" cy="3.7" r="0.1"/>
<circle fill="none" cx="59" cy="15.6" r="0.1"/>
<circle fill="none" cx="63" cy="30.5" r="0.1"/>
<circle fill="none" cx="59" cy="45.5" r="0.1"/>
<circle fill="none" cx="47" cy="57.1" r="0.1"/>
<circle fill="none" cx="31.5" cy="61" r="0.1"/>
<circle fill="none" cx="16" cy="57.1" r="0.1"/>
<circle fill="none" cx="4" cy="45.5" r="0.1"/>
<circle fill="none" cx="0" cy="30.2" r="0.1"/>
<circle fill="none" cx="4" cy="15.6" r="0.1"/>
<circle fill="none" cx="16.4" cy="3.7" r="0.1"/>
</g></g><rect stroke="none" stroke-width="0" fill="#FFFFFF" x="0" y="0" width="0" height="0" transform="translate(62.9,30.4)"/><path stroke="#000000" fill="none" d=""/><text font-family="OpenSansCondensedLight" font-size="14pt" fill="black" transform="translate(62.9,30.4)"/><rect stroke-width="0" fill="none" width="50.7" height="30" transform="translate(6.2,15.5)"/><text font-family="OpenSansCondensedLight" font-size="14pt" fill="black" transform="translate(6.2,15.5)" text-anchor="middle"><tspan x="25.4" y="21.3">Y(t+1)</tspan></text><path stroke="#000000" fill="none" transform="translate(6.2,15.5)" d="M 0 0"/></g><g transform="translate(333,220)"><g><g>
<path d="M12.5,0C5.6,0,0,5.6,0,12.5s5.6,12.5,12.5,12.5s12.5,-5.6,12.5,-12.5S19.4,0,12.5,0L12.5,0z" stroke="#000000" stroke-dasharray="none" fill="#FFFFFF"/>
<rect x="2.5" y="6.4" width="20.1" height="12.3" fill="none"/>
<circle fill="none" cx="12.5" cy="0" r="0.1"/>
<circle fill="none" cx="18.5" cy="1.5" r="0.1"/>
<circle fill="none" cx="23.4" cy="6.4" r="0.1"/>
<circle fill="none" cx="25" cy="12.5" r="0.1"/>
<circle fill="none" cx="23.4" cy="18.6" r="0.1"/>
<circle fill="none" cx="18.6" cy="23.4" r="0.1"/>
<circle fill="none" cx="12.5" cy="25" r="0.1"/>
<circle fill="none" cx="6.3" cy="23.4" r="0.1"/>
<circle fill="none" cx="1.6" cy="18.6" r="0.1"/>
<circle fill="none" cx="0" cy="12.4" r="0.1"/>
<circle fill="none" cx="1.6" cy="6.4" r="0.1"/>
<circle fill="none" cx="6.5" cy="1.5" r="0.1"/>
</g></g><rect stroke="none" stroke-width="0" fill="#FFFFFF" x="0" y="0" width="0" height="0" transform="translate(24.9,12.4)"/><path stroke="#000000" fill="none" d=""/><text font-family="OpenSansCondensedLight" font-size="14pt" fill="black" transform="translate(24.9,12.4)"/><rect stroke-width="0" fill="none" width="20.1" height="12.3" transform="translate(2.5,6.4)"/><text font-family="OpenSansCondensedLight" font-size="14pt" fill="black" transform="translate(2.5,6.4)" text-anchor="middle"><tspan x="10.1" y="12.4">X</tspan></text><path stroke="#000000" fill="none" transform="translate(2.5,6.4)" d="M 0 0"/></g><g transform="translate(413,218)"><g><g>
<path d="M13.5,0C6,0,0,5.6,0,12.5s6,12.5,13.5,12.5s13.5,-5.6,13.5,-12.5S21,0,13.5,0L13.5,0z" stroke="#000000" stroke-dasharray="none" fill="#FFFFFF"/>
<rect x="2.7" y="6.4" width="21.7" height="12.3" fill="none"/>
<circle fill="none" cx="13.5" cy="0" r="0.1"/>
<circle fill="none" cx="20" cy="1.5" r="0.1"/>
<circle fill="none" cx="25.3" cy="6.4" r="0.1"/>
<circle fill="none" cx="27" cy="12.5" r="0.1"/>
<circle fill="none" cx="25.3" cy="18.6" r="0.1"/>
<circle fill="none" cx="20.1" cy="23.4" r="0.1"/>
<circle fill="none" cx="13.5" cy="25" r="0.1"/>
<circle fill="none" cx="6.8" cy="23.4" r="0.1"/>
<circle fill="none" cx="1.7" cy="18.6" r="0.1"/>
<circle fill="none" cx="0" cy="12.4" r="0.1"/>
<circle fill="none" cx="1.7" cy="6.4" r="0.1"/>
<circle fill="none" cx="7" cy="1.5" r="0.1"/>
</g></g><rect stroke="none" stroke-width="0" fill="#FFFFFF" x="0" y="0" width="0" height="0" transform="translate(26.9,12.4)"/><path stroke="#000000" fill="none" d=""/><text font-family="OpenSansCondensedLight" font-size="14pt" fill="black" transform="translate(26.9,12.4)"/><rect stroke-width="0" fill="none" width="21.7" height="12.3" transform="translate(2.7,6.4)"/><text font-family="OpenSansCondensedLight" font-size="14pt" fill="black" transform="translate(2.7,6.4)" text-anchor="middle"><tspan x="10.9" y="12.4">+</tspan></text><path stroke="#000000" fill="none" transform="translate(2.7,6.4)" d="M 0 0"/></g><g transform="translate(413,268)"><g><g>
<path d="M12.5,0C5.6,0,0,5.6,0,12.5s5.6,12.5,12.5,12.5s12.5,-5.6,12.5,-12.5S19.4,0,12.5,0L12.5,0z" stroke="#000000" stroke-dasharray="none" fill="#FFFFFF"/>
<rect x="2.5" y="6.4" width="20.1" height="12.3" fill="none"/>
<circle fill="none" cx="12.5" cy="0" r="0.1"/>
<circle fill="none" cx="18.5" cy="1.5" r="0.1"/>
<circle fill="none" cx="23.4" cy="6.4" r="0.1"/>
<circle fill="none" cx="25" cy="12.5" r="0.1"/>
<circle fill="none" cx="23.4" cy="18.6" r="0.1"/>
<circle fill="none" cx="18.6" cy="23.4" r="0.1"/>
<circle fill="none" cx="12.5" cy="25" r="0.1"/>
<circle fill="none" cx="6.3" cy="23.4" r="0.1"/>
<circle fill="none" cx="1.6" cy="18.6" r="0.1"/>
<circle fill="none" cx="0" cy="12.4" r="0.1"/>
<circle fill="none" cx="1.6" cy="6.4" r="0.1"/>
<circle fill="none" cx="6.5" cy="1.5" r="0.1"/>
</g></g><rect stroke="none" stroke-width="0" fill="#FFFFFF" x="0" y="0" width="0" height="0" transform="translate(24.9,12.4)"/><path stroke="#000000" fill="none" d=""/><text font-family="OpenSansCondensedLight" font-size="14pt" fill="black" transform="translate(24.9,12.4)"/><rect stroke-width="0" fill="none" width="20.1" height="12.3" transform="translate(2.5,6.4)"/><text font-family="OpenSansCondensedLight" font-size="14pt" fill="black" transform="translate(2.5,6.4)" text-anchor="middle"><tspan x="10.1" y="12.4">X</tspan></text><path stroke="#000000" fill="none" transform="translate(2.5,6.4)" d="M 0 0"/></g><g transform="translate(500,281)"><g><g>
<path d="M12.5,0C5.6,0,0,5.6,0,12.5s5.6,12.5,12.5,12.5s12.5,-5.6,12.5,-12.5S19.4,0,12.5,0L12.5,0z" stroke="#000000" stroke-dasharray="none" fill="#FFFFFF"/>
<rect x="2.5" y="6.4" width="20.1" height="12.3" fill="none"/>
<circle fill="none" cx="12.5" cy="0" r="0.1"/>
<circle fill="none" cx="18.5" cy="1.5" r="0.1"/>
<circle fill="none" cx="23.4" cy="6.4" r="0.1"/>
<circle fill="none" cx="25" cy="12.5" r="0.1"/>
<circle fill="none" cx="23.4" cy="18.6" r="0.1"/>
<circle fill="none" cx="18.6" cy="23.4" r="0.1"/>
<circle fill="none" cx="12.5" cy="25" r="0.1"/>
<circle fill="none" cx="6.3" cy="23.4" r="0.1"/>
<circle fill="none" cx="1.6" cy="18.6" r="0.1"/>
<circle fill="none" cx="0" cy="12.4" r="0.1"/>
<circle fill="none" cx="1.6" cy="6.4" r="0.1"/>
<circle fill="none" cx="6.5" cy="1.5" r="0.1"/>
</g></g><rect stroke="none" stroke-width="0" fill="#FFFFFF" x="0" y="0" width="0" height="0" transform="translate(24.9,12.4)"/><path stroke="#000000" fill="none" d=""/><text font-family="OpenSansCondensedLight" font-size="14pt" fill="black" transform="translate(24.9,12.4)"/><rect stroke-width="0" fill="none" width="20.1" height="12.3" transform="translate(2.5,6.4)"/><text font-family="OpenSansCondensedLight" font-size="14pt" fill="black" transform="translate(2.5,6.4)" text-anchor="middle"><tspan x="10.1" y="12.4">X</tspan></text><path stroke="#000000" fill="none" transform="translate(2.5,6.4)" d="M 0 0"/></g><g transform="translate(406,302.4)"><g><g>
<path d="M20.5,0C9.1,0,0,5.6,0,12.5s9.1,12.5,20.5,12.5s20.5,-5.6,20.5,-12.5S31.9,0,20.5,0L20.5,0z" stroke="#000000" stroke-dasharray="none" fill="#FFFFFF"/>
<rect x="4" y="6.4" width="33" height="12.3" fill="none"/>
<circle fill="none" cx="20.6" cy="0" r="0.1"/>
<circle fill="none" cx="30.3" cy="1.5" r="0.1"/>
<circle fill="none" cx="38.4" cy="6.4" r="0.1"/>
<circle fill="none" cx="41" cy="12.5" r="0.1"/>
<circle fill="none" cx="38.4" cy="18.6" r="0.1"/>
<circle fill="none" cx="30.6" cy="23.4" r="0.1"/>
<circle fill="none" cx="20.5" cy="25" r="0.1"/>
<circle fill="none" cx="10.4" cy="23.4" r="0.1"/>
<circle fill="none" cx="2.6" cy="18.6" r="0.1"/>
<circle fill="none" cx="0" cy="12.4" r="0.1"/>
<circle fill="none" cx="2.6" cy="6.4" r="0.1"/>
<circle fill="none" cx="10.7" cy="1.5" r="0.1"/>
</g></g><rect stroke="none" stroke-width="0" fill="#FFFFFF" x="0" y="0" width="0" height="0" transform="translate(40.9,12.4)"/><path stroke="#000000" fill="none" d=""/><text font-family="OpenSansCondensedLight" font-size="14pt" fill="black" transform="translate(40.9,12.4)"/><rect stroke-width="0" fill="none" width="33" height="12.3" transform="translate(4,6.4)"/><text font-family="OpenSansCondensedLight" font-size="14pt" fill="black" transform="translate(4,6.4)" text-anchor="middle"><tspan x="16.5" y="12.4">tanh</tspan></text><path stroke="#000000" fill="none" transform="translate(4,6.4)" d="M 0 0"/></g><g transform="translate(494,245)"><g><g>
<path d="M20.5,0C9.1,0,0,5.6,0,12.5s9.1,12.5,20.5,12.5s20.5,-5.6,20.5,-12.5S31.9,0,20.5,0L20.5,0z" stroke="#000000" stroke-dasharray="none" fill="#FFFFFF"/>
<rect x="4" y="6.4" width="33" height="12.3" fill="none"/>
<circle fill="none" cx="20.6" cy="0" r="0.1"/>
<circle fill="none" cx="30.3" cy="1.5" r="0.1"/>
<circle fill="none" cx="38.4" cy="6.4" r="0.1"/>
<circle fill="none" cx="41" cy="12.5" r="0.1"/>
<circle fill="none" cx="38.4" cy="18.6" r="0.1"/>
<circle fill="none" cx="30.6" cy="23.4" r="0.1"/>
<circle fill="none" cx="20.5" cy="25" r="0.1"/>
<circle fill="none" cx="10.4" cy="23.4" r="0.1"/>
<circle fill="none" cx="2.6" cy="18.6" r="0.1"/>
<circle fill="none" cx="0" cy="12.4" r="0.1"/>
<circle fill="none" cx="2.6" cy="6.4" r="0.1"/>
<circle fill="none" cx="10.7" cy="1.5" r="0.1"/>
</g></g><rect stroke="none" stroke-width="0" fill="#FFFFFF" x="0" y="0" width="0" height="0" transform="translate(40.9,12.4)"/><path stroke="#000000" fill="none" d=""/><text font-family="OpenSansCondensedLight" font-size="14pt" fill="black" transform="translate(40.9,12.4)"/><rect stroke-width="0" fill="none" width="33" height="12.3" transform="translate(4,6.4)"/><text font-family="OpenSansCondensedLight" font-size="14pt" fill="black" transform="translate(4,6.4)" text-anchor="middle"><tspan x="16.5" y="12.4">tanh</tspan></text><path stroke="#000000" fill="none" transform="translate(4,6.4)" d="M 0 0"/></g><g transform="translate(323,302)"><g><g>
<path d="M19.5,0C8.7,0,0,5.8,0,13s8.7,13,19.5,13s19.5,-5.8,19.5,-13S30.3,0,19.5,0L19.5,0z" stroke="#000000" stroke-dasharray="none" fill="#FFFFFF"/>
<rect x="3.8" y="6.6" width="31.4" height="12.8" fill="none"/>
<circle fill="none" cx="19.6" cy="0" r="0.1"/>
<circle fill="none" cx="28.8" cy="1.6" r="0.1"/>
<circle fill="none" cx="36.5" cy="6.6" r="0.1"/>
<circle fill="none" cx="39" cy="13" r="0.1"/>
<circle fill="none" cx="36.5" cy="19.4" r="0.1"/>
<circle fill="none" cx="29.1" cy="24.3" r="0.1"/>
<circle fill="none" cx="19.5" cy="26" r="0.1"/>
<circle fill="none" cx="9.9" cy="24.3" r="0.1"/>
<circle fill="none" cx="2.5" cy="19.4" r="0.1"/>
<circle fill="none" cx="0" cy="12.9" r="0.1"/>
<circle fill="none" cx="2.5" cy="6.6" r="0.1"/>
<circle fill="none" cx="10.1" cy="1.6" r="0.1"/>
</g></g><rect stroke="none" stroke-width="0" fill="#FFFFFF" x="0" y="0" width="0" height="0" transform="translate(38.9,12.9)"/><path stroke="#000000" fill="none" d=""/><text font-family="OpenSansCondensedLight" font-size="14pt" fill="black" transform="translate(38.9,12.9)"/><rect stroke-width="0" fill="none" width="31.4" height="12.8" transform="translate(3.8,6.6)"/><text font-family="OpenSansCondensedLight" font-size="14pt" fill="black" transform="translate(3.8,6.6)" text-anchor="middle"><tspan x="15.7" y="12.7">sigm</tspan></text><path stroke="#000000" fill="none" transform="translate(3.8,6.6)" d="M 0 0"/></g><g transform="translate(365,302)"><g><g>
<path d="M19.5,0C8.7,0,0,5.8,0,13s8.7,13,19.5,13s19.5,-5.8,19.5,-13S30.3,0,19.5,0L19.5,0z" stroke="#000000" stroke-dasharray="none" fill="#FFFFFF"/>
<rect x="3.8" y="6.6" width="31.4" height="12.8" fill="none"/>
<circle fill="none" cx="19.6" cy="0" r="0.1"/>
<circle fill="none" cx="28.8" cy="1.6" r="0.1"/>
<circle fill="none" cx="36.5" cy="6.6" r="0.1"/>
<circle fill="none" cx="39" cy="13" r="0.1"/>
<circle fill="none" cx="36.5" cy="19.4" r="0.1"/>
<circle fill="none" cx="29.1" cy="24.3" r="0.1"/>
<circle fill="none" cx="19.5" cy="26" r="0.1"/>
<circle fill="none" cx="9.9" cy="24.3" r="0.1"/>
<circle fill="none" cx="2.5" cy="19.4" r="0.1"/>
<circle fill="none" cx="0" cy="12.9" r="0.1"/>
<circle fill="none" cx="2.5" cy="6.6" r="0.1"/>
<circle fill="none" cx="10.1" cy="1.6" r="0.1"/>
</g></g><rect stroke="none" stroke-width="0" fill="#FFFFFF" x="0" y="0" width="0" height="0" transform="translate(38.9,12.9)"/><path stroke="#000000" fill="none" d=""/><text font-family="OpenSansCondensedLight" font-size="14pt" fill="black" transform="translate(38.9,12.9)"/><rect stroke-width="0" fill="none" width="31.4" height="12.8" transform="translate(3.8,6.6)"/><text font-family="OpenSansCondensedLight" font-size="14pt" fill="black" transform="translate(3.8,6.6)" text-anchor="middle"><tspan x="15.7" y="12.7">sigm</tspan></text><path stroke="#000000" fill="none" transform="translate(3.8,6.6)" d="M 0 0"/></g><g transform="translate(450,302)"><g><g>
<path d="M19.5,0C8.7,0,0,5.8,0,13s8.7,13,19.5,13s19.5,-5.8,19.5,-13S30.3,0,19.5,0L19.5,0z" stroke="#000000" stroke-dasharray="none" fill="#FFFFFF"/>
<rect x="3.8" y="6.6" width="31.4" height="12.8" fill="none"/>
<circle fill="none" cx="19.6" cy="0" r="0.1"/>
<circle fill="none" cx="28.8" cy="1.6" r="0.1"/>
<circle fill="none" cx="36.5" cy="6.6" r="0.1"/>
<circle fill="none" cx="39" cy="13" r="0.1"/>
<circle fill="none" cx="36.5" cy="19.4" r="0.1"/>
<circle fill="none" cx="29.1" cy="24.3" r="0.1"/>
<circle fill="none" cx="19.5" cy="26" r="0.1"/>
<circle fill="none" cx="9.9" cy="24.3" r="0.1"/>
<circle fill="none" cx="2.5" cy="19.4" r="0.1"/>
<circle fill="none" cx="0" cy="12.9" r="0.1"/>
<circle fill="none" cx="2.5" cy="6.6" r="0.1"/>
<circle fill="none" cx="10.1" cy="1.6" r="0.1"/>
</g></g><rect stroke="none" stroke-width="0" fill="#FFFFFF" x="0" y="0" width="0" height="0" transform="translate(38.9,12.9)"/><path stroke="#000000" fill="none" d=""/><text font-family="OpenSansCondensedLight" font-size="14pt" fill="black" transform="translate(38.9,12.9)"/><rect stroke-width="0" fill="none" width="31.4" height="12.8" transform="translate(3.8,6.6)"/><text font-family="OpenSansCondensedLight" font-size="14pt" fill="black" transform="translate(3.8,6.6)" text-anchor="middle"><tspan x="15.7" y="12.7">sigm</tspan></text><path stroke="#000000" fill="none" transform="translate(3.8,6.6)" d="M 0 0"/></g><g><path stroke="black" stroke-dasharray="none" d="M 270 232 325 232" fill="none"/><path fill="black" stroke="black" d="" transform="translate(270,232) scale(1,1) rotate(0)"/><path fill="black" stroke="black" d="M 8 0 L 0 4 L 8 8 z" transform="translate(333,236) scale(1,1) rotate(-180)"/><g><g label-idx="0" cursor="move" transform="translate(297.5, 232)"><rect fill="white" rx="3" ry="3" x="0" y="0" width="0" height="0"/><text text-anchor="middle" font-size="14pt" font-family="OpenSansCondensedLight" y="0.8em" display="none" xml:space="preserve" transform="translate(0,0)"/></g></g></g><g><path stroke="black" stroke-dasharray="none" d="M 358 230 405 230" fill="none"/><path fill="black" stroke="black" d="" transform="translate(358,230) scale(1,1) rotate(0)"/><path fill="black" stroke="black" d="M 8 0 L 0 4 L 8 8 z" transform="translate(413,234) scale(1,1) rotate(-180)"/><g><g label-idx="0" cursor="move" transform="translate(381.5, 230)"><rect fill="white" rx="3" ry="3" x="0" y="0" width="0" height="0"/><text text-anchor="middle" font-size="14pt" font-family="OpenSansCondensedLight" y="0.8em" display="none" xml:space="preserve" transform="translate(0,0)"/></g></g></g><g><path stroke="black" stroke-dasharray="none" d="M 440 232 588 232" fill="none"/><path fill="black" stroke="black" d="" transform="translate(440,232) scale(1,1) rotate(0)"/><path fill="black" stroke="black" d="M 8 0 L 0 4 L 8 8 z" transform="translate(596,236) scale(1,1) rotate(-180)"/><g><g label-idx="0" cursor="move" transform="translate(514, 232)"><rect fill="white" rx="3" ry="3" x="0" y="0" width="0" height="0"/><text text-anchor="middle" font-size="14pt" font-family="OpenSansCondensedLight" y="0.8em" display="none" xml:space="preserve" transform="translate(0,0)"/></g></g></g><g><path stroke="black" stroke-dasharray="none" d="M 282 343 465 343 465 336" fill="none"/><path fill="black" stroke="black" d="" transform="translate(282,343) scale(1,1) rotate(0)"/><path fill="black" stroke="black" d="M 8 0 L 0 4 L 8 8 z" transform="translate(469,328) scale(1,1) rotate(-270)"/><g><g label-idx="0" cursor="move" transform="translate(377, 343)"><rect fill="white" rx="3" ry="3" x="0" y="0" width="0" height="0"/><text text-anchor="middle" font-size="14pt" font-family="OpenSansCondensedLight" y="0.8em" display="none" xml:space="preserve" transform="translate(0,0)"/></g></g></g><g><path stroke="black" stroke-dasharray="none" d="M 389 302 389 281 405 281" fill="none"/><path fill="black" stroke="black" d="" transform="translate(389,302) scale(1,1) rotate(-90)"/><path fill="black" stroke="black" d="M 8 0 L 0 4 L 8 8 z" transform="translate(413,285) scale(1,1) rotate(-180)"/><g><g label-idx="0" cursor="move" transform="translate(389, 283.5)"><rect fill="white" rx="3" ry="3" x="0" y="0" width="0" height="0"/><text text-anchor="middle" font-size="14pt" font-family="OpenSansCondensedLight" y="0.8em" display="none" xml:space="preserve" transform="translate(0,0)"/></g></g></g><g><path stroke="black" stroke-dasharray="none" d="M 426 268 426 251" fill="none"/><path fill="black" stroke="black" d="" transform="translate(426,268) scale(1,1) rotate(-90)"/><path fill="black" stroke="black" d="M 8 0 L 0 4 L 8 8 z" transform="translate(430,243) scale(1,1) rotate(-270)"/><g><g label-idx="0" cursor="move" transform="translate(426, 259.5)"><rect fill="white" rx="3" ry="3" x="0" y="0" width="0" height="0"/><text text-anchor="middle" font-size="14pt" font-family="OpenSansCondensedLight" y="0.8em" display="none" xml:space="preserve" transform="translate(0,0)"/></g></g></g><g><path stroke="black" stroke-dasharray="none" d="M 345 302 345 253" fill="none"/><path fill="black" stroke="black" d="" transform="translate(345,302) scale(1,1) rotate(-90)"/><path fill="black" stroke="black" d="M 8 0 L 0 4 L 8 8 z" transform="translate(349,245) scale(1,1) rotate(-270)"/><g><g label-idx="0" cursor="move" transform="translate(345, 277.5)"><rect fill="white" rx="3" ry="3" x="0" y="0" width="0" height="0"/><text text-anchor="middle" font-size="14pt" font-family="OpenSansCondensedLight" y="0.8em" display="none" xml:space="preserve" transform="translate(0,0)"/></g></g></g><g><path stroke="black" stroke-dasharray="none" d="M 345 302 345 253" fill="none"/><path fill="black" stroke="black" d="" transform="translate(345,302) scale(1,1) rotate(-90)"/><path fill="black" stroke="black" d="M 8 0 L 0 4 L 8 8 z" transform="translate(349,245) scale(1,1) rotate(-270)"/><g><g label-idx="0" cursor="move" transform="translate(345, 277.5)"><rect fill="white" rx="3" ry="3" x="0" y="0" width="0" height="0"/><text text-anchor="middle" font-size="14pt" font-family="OpenSansCondensedLight" y="0.8em" display="none" xml:space="preserve" transform="translate(0,0)"/></g></g></g><g><path stroke="black" stroke-dasharray="none" d="M 525 295 585 295" fill="none"/><path fill="black" stroke="black" d="" transform="translate(525,295) scale(1,1) rotate(0)"/><path fill="black" stroke="black" d="M 8 0 L 0 4 L 8 8 z" transform="translate(593,299) scale(1,1) rotate(-180)"/><g><g label-idx="0" cursor="move" transform="translate(555, 295)"><rect fill="white" rx="3" ry="3" x="0" y="0" width="0" height="0"/><text text-anchor="middle" font-size="14pt" font-family="OpenSansCondensedLight" y="0.8em" display="none" xml:space="preserve" transform="translate(0,0)"/></g></g></g><g><path stroke="black" stroke-dasharray="none" d="M 525 293 540 293 540 152" fill="none"/><path fill="black" stroke="black" d="" transform="translate(525,293) scale(1,1) rotate(0)"/><path fill="black" stroke="black" d="M 8 0 L 0 4 L 8 8 z" transform="translate(544,144) scale(1,1) rotate(-270)"/><g><g label-idx="0" cursor="move" transform="translate(540, 230)"><rect fill="white" rx="3" ry="3" x="0" y="0" width="0" height="0"/><text text-anchor="middle" font-size="14pt" font-family="OpenSansCondensedLight" y="0.8em" display="none" xml:space="preserve" transform="translate(0,0)"/></g></g></g><g><path stroke="black" stroke-dasharray="none" d="M 514 281 514 278" fill="none"/><path fill="black" stroke="black" d="" transform="translate(514,281) scale(1,1) rotate(-90)"/><path fill="black" stroke="black" d="M 8 0 L 0 4 L 8 8 z" transform="translate(518,270) scale(1,1) rotate(-270)"/><g><g label-idx="0" cursor="move" transform="translate(514, 279.5)"><rect fill="white" rx="3" ry="3" x="0" y="0" width="0" height="0"/><text text-anchor="middle" font-size="14pt" font-family="OpenSansCondensedLight" y="0.8em" display="none" xml:space="preserve" transform="translate(0,0)"/></g></g></g><g><path stroke="black" stroke-dasharray="none" d="M 513 245 513 239" fill="none"/><path fill="black" stroke="black" d="" transform="translate(513,245) scale(1,1) rotate(-90)"/><path fill="black" stroke="black" d="M 8 0 L 0 4 L 8 8 z" transform="translate(517,231) scale(1,1) rotate(-270)"/><g><g label-idx="0" cursor="move" transform="translate(513, 242)"><rect fill="white" rx="3" ry="3" x="0" y="0" width="0" height="0"/><text text-anchor="middle" font-size="14pt" font-family="OpenSansCondensedLight" y="0.8em" display="none" xml:space="preserve" transform="translate(0,0)"/></g></g></g><g><path stroke="black" stroke-dasharray="none" d="M 478 304 478 293 492 293" fill="none"/><path fill="black" stroke="black" d="" transform="translate(478,304) scale(1,1) rotate(-90)"/><path fill="black" stroke="black" d="M 8 0 L 0 4 L 8 8 z" transform="translate(500,297) scale(1,1) rotate(-180)"/><g><g label-idx="0" cursor="move" transform="translate(479.5, 293)"><rect fill="white" rx="3" ry="3" x="0" y="0" width="0" height="0"/><text text-anchor="middle" font-size="14pt" font-family="OpenSansCondensedLight" y="0.8em" display="none" xml:space="preserve" transform="translate(0,0)"/></g></g></g><g><path stroke="black" stroke-dasharray="none" d="M 849 234 878 234" fill="none"/><path fill="black" stroke="black" d="" transform="translate(849,234) scale(1,1) rotate(0)"/><path fill="black" stroke="black" d="M 8 0 L 0 4 L 8 8 z" transform="translate(886,238) scale(1,1) rotate(-180)"/><g><g label-idx="0" cursor="move" transform="translate(863.5, 234)"><rect fill="white" rx="3" ry="3" x="0" y="0" width="0" height="0"/><text text-anchor="middle" font-size="14pt" font-family="OpenSansCondensedLight" y="0.8em" display="none" xml:space="preserve" transform="translate(0,0)"/></g></g></g><g><path stroke="black" stroke-dasharray="none" d="M 846 343 886 343" fill="none"/><path fill="black" stroke="black" d="" transform="translate(846,343) scale(1,1) rotate(0)"/><path fill="black" stroke="black" d="M 8 0 L 0 4 L 8 8 z" transform="translate(894,347) scale(1,1) rotate(-180)"/><g><g label-idx="0" cursor="move" transform="translate(866, 343)"><rect fill="white" rx="3" ry="3" x="0" y="0" width="0" height="0"/><text text-anchor="middle" font-size="14pt" font-family="OpenSansCondensedLight" y="0.8em" display="none" xml:space="preserve" transform="translate(0,0)"/></g></g></g><g><path stroke="black" stroke-dasharray="none" d="M 355 402 355 378" fill="none"/><path fill="black" stroke="black" d="" transform="translate(355,402) scale(1,1) rotate(-90)"/><path fill="black" stroke="black" d="M 8 0 L 0 4 L 8 8 z" transform="translate(359,370) scale(1,1) rotate(-270)"/><g><g label-idx="0" cursor="move" transform="translate(355, 390)"><rect fill="white" rx="3" ry="3" x="0" y="0" width="0" height="0"/><text text-anchor="middle" font-size="14pt" font-family="OpenSansCondensedLight" y="0.8em" display="none" xml:space="preserve" transform="translate(0,0)"/></g></g></g><g><path stroke="black" stroke-dasharray="none" d="M 426 343 426 335" fill="none"/><path fill="black" stroke="black" d="" transform="translate(426,343) scale(1,1) rotate(-90)"/><path fill="black" stroke="black" d="M 8 0 L 0 4 L 8 8 z" transform="translate(430,327) scale(1,1) rotate(-270)"/><g><g label-idx="0" cursor="move" transform="translate(426, 339)"><rect fill="white" rx="3" ry="3" x="0" y="0" width="0" height="0"/><text text-anchor="middle" font-size="14pt" font-family="OpenSansCondensedLight" y="0.8em" display="none" xml:space="preserve" transform="translate(0,0)"/></g></g></g><g><path stroke="black" stroke-dasharray="none" d="M 384 345 384 336" fill="none"/><path fill="black" stroke="black" d="" transform="translate(384,345) scale(1,1) rotate(-90)"/><path fill="black" stroke="black" d="M 8 0 L 0 4 L 8 8 z" transform="translate(388,328) scale(1,1) rotate(-270)"/><g><g label-idx="0" cursor="move" transform="translate(384, 340.5)"><rect fill="white" rx="3" ry="3" x="0" y="0" width="0" height="0"/><text text-anchor="middle" font-size="14pt" font-family="OpenSansCondensedLight" y="0.8em" display="none" xml:space="preserve" transform="translate(0,0)"/></g></g></g><g><path stroke="black" stroke-dasharray="none" d="M 342 345 342 336" fill="none"/><path fill="black" stroke="black" d="" transform="translate(342,345) scale(1,1) rotate(-90)"/><path fill="black" stroke="black" d="M 8 0 L 0 4 L 8 8 z" transform="translate(346,328) scale(1,1) rotate(-270)"/><g><g label-idx="0" cursor="move" transform="translate(342, 340.5)"><rect fill="white" rx="3" ry="3" x="0" y="0" width="0" height="0"/><text text-anchor="middle" font-size="14pt" font-family="OpenSansCondensedLight" y="0.8em" display="none" xml:space="preserve" transform="translate(0,0)"/></g></g></g><g><path stroke="black" stroke-dasharray="none" d="M 248 190 248 156" fill="none"/><path fill="black" stroke="black" d="" transform="translate(248,190) scale(1,1) rotate(-90)"/><path fill="black" stroke="black" d="M 8 0 L 0 4 L 8 8 z" transform="translate(252,148) scale(1,1) rotate(-270)"/><g><g label-idx="0" cursor="move" transform="translate(248, 173)"><rect fill="white" rx="3" ry="3" x="0" y="0" width="0" height="0"/><text text-anchor="middle" font-size="14pt" font-family="OpenSansCondensedLight" y="0.8em" display="none" xml:space="preserve" transform="translate(0,0)"/></g></g></g><g><path stroke="black" stroke-dasharray="none" d="M 805 192 805 154" fill="none"/><path fill="black" stroke="black" d="" transform="translate(805,192) scale(1,1) rotate(-90)"/><path fill="black" stroke="black" d="M 8 0 L 0 4 L 8 8 z" transform="translate(809,146) scale(1,1) rotate(-270)"/><g><g label-idx="0" cursor="move" transform="translate(805, 173)"><rect fill="white" rx="3" ry="3" x="0" y="0" width="0" height="0"/><text text-anchor="middle" font-size="14pt" font-family="OpenSansCondensedLight" y="0.8em" display="none" xml:space="preserve" transform="translate(0,0)"/></g></g></g><g transform="translate(264,234)"><g><g>
<path d="M56.7,0H0v24.2h56.7V0L56.7,0z" fill="none" stroke="none" stroke-dasharray="none"/>
<rect x="2.5" y="1.1" width="51.7" height="22" fill="none"/>
<circle fill="none" cx="28.3" cy="0" r="0.1"/>
<circle fill="none" cx="42.4" cy="0" r="0.1"/>
<circle fill="none" cx="56.7" cy="6.1" r="0.1"/>
<circle fill="none" cx="56.7" cy="12.1" r="0.1"/>
<circle fill="none" cx="56.7" cy="18.1" r="0.1"/>
<circle fill="none" cx="42.4" cy="24.2" r="0.1"/>
<circle fill="none" cx="28.3" cy="24.2" r="0.1"/>
<circle fill="none" cx="14.3" cy="24.2" r="0.1"/>
<circle fill="none" cx="0" cy="18.1" r="0.1"/>
<circle fill="none" cx="0" cy="12.1" r="0.1"/>
<circle fill="none" cx="0" cy="6.1" r="0.1"/>
<circle fill="none" cx="14.3" cy="0" r="0.1"/>
</g></g><rect stroke="none" stroke-width="0" fill="#FFFFFF" x="0" y="0" width="0" height="0" transform="translate(56.6,12)"/><path stroke="#000000" fill="none" d=""/><text font-family="OpenSansCondensedLight" font-size="14pt" fill="black" transform="translate(56.6,12)"/><rect stroke-width="0" fill="none" width="51.7" height="22" transform="translate(2.5,1.1)"/><text font-family="OpenSansCondensedLight" font-size="14pt" fill="black" transform="translate(2.5,1.1)" text-anchor="middle"><tspan x="25.9" y="17.3">C(t-1)</tspan></text><path stroke="#000000" fill="none" transform="translate(2.5,1.1)" d="M 0 0"/></g><g transform="translate(559,237.2)"><g><g>
<path d="M40,0H0v24h40V0L40,0z" fill="none" stroke="none" stroke-dasharray="none"/>
<rect x="1.7" y="1.1" width="36.5" height="21.8" fill="none"/>
<circle fill="none" cx="20" cy="0" r="0.1"/>
<circle fill="none" cx="29.9" cy="0" r="0.1"/>
<circle fill="none" cx="40" cy="6.1" r="0.1"/>
<circle fill="none" cx="40" cy="12" r="0.1"/>
<circle fill="none" cx="40" cy="17.9" r="0.1"/>
<circle fill="none" cx="29.9" cy="24" r="0.1"/>
<circle fill="none" cx="20" cy="24" r="0.1"/>
<circle fill="none" cx="10.1" cy="24" r="0.1"/>
<circle fill="none" cx="0" cy="17.9" r="0.1"/>
<circle fill="none" cx="0" cy="12" r="0.1"/>
<circle fill="none" cx="0" cy="6.1" r="0.1"/>
<circle fill="none" cx="10.1" cy="0" r="0.1"/>
</g></g><rect stroke="none" stroke-width="0" fill="#FFFFFF" x="0" y="0" width="0" height="0" transform="translate(39.9,11.9)"/><path stroke="#000000" fill="none" d=""/><text font-family="OpenSansCondensedLight" font-size="14pt" fill="black" transform="translate(39.9,11.9)"/><rect stroke-width="0" fill="none" width="36.5" height="21.8" transform="translate(1.7,1.1)"/><text font-family="OpenSansCondensedLight" font-size="14pt" fill="black" transform="translate(1.7,1.1)" text-anchor="middle"><tspan x="18.3" y="17.2">C(t)</tspan></text><path stroke="#000000" fill="none" transform="translate(1.7,1.1)" d="M 0 0"/></g><g transform="translate(322,300.4)"><g><g>
<path d="M173,0H0v30h173V0L173,0z" fill="none" stroke="#000000" stroke-dasharray="5,5"/>
<rect x="7.6" y="1.4" width="157.9" height="27.3" fill="none"/>
<circle fill="none" cx="86.5" cy="0" r="0.1"/>
<circle fill="none" cx="129.4" cy="0" r="0.1"/>
<circle fill="none" cx="173" cy="7.6" r="0.1"/>
<circle fill="none" cx="173" cy="15" r="0.1"/>
<circle fill="none" cx="173" cy="22.4" r="0.1"/>
<circle fill="none" cx="129.4" cy="30" r="0.1"/>
<circle fill="none" cx="86.5" cy="30" r="0.1"/>
<circle fill="none" cx="43.6" cy="30" r="0.1"/>
<circle fill="none" cx="0" cy="22.4" r="0.1"/>
<circle fill="none" cx="0" cy="15" r="0.1"/>
<circle fill="none" cx="0" cy="7.6" r="0.1"/>
<circle fill="none" cx="43.6" cy="0" r="0.1"/>
</g></g><rect stroke="none" stroke-width="0" fill="#FFFFFF" x="0" y="0" width="0" height="0" transform="translate(172.9,14.9)"/><path stroke="#000000" fill="none" d=""/><text font-family="OpenSansCondensedLight" font-size="14pt" fill="black" transform="translate(172.9,14.9)"/><rect stroke-width="0" fill="none" width="157.9" height="27.3" transform="translate(7.6,1.4)"/><text font-family="OpenSansCondensedLight" font-size="14pt" fill="black" transform="translate(7.6,1.4)" text-anchor="middle"><tspan x="78.9" y="19.9"> </tspan></text><path stroke="#000000" fill="none" transform="translate(7.6,1.4)" d="M 0 0"/></g></g><defs/></svg>